<svg width="38" height="38" viewBox="0 0 38 38" fill="none" xmlns="http://www.w3.org/2000/svg">
<path d="M0.11875 8.44313C0.358193 7.39395 0.946806 6.45718 1.78819 5.78623C2.62957 5.11528 3.67385 4.74993 4.75 4.75H33.25C34.3261 4.74993 35.3704 5.11528 36.2118 5.78623C37.0532 6.45718 37.6418 7.39395 37.8812 8.44313L19 19.9833L0.11875 8.44313ZM0 11.1554V28.0274L13.7821 19.5771L0 11.1554ZM16.0574 20.9713L0.453625 30.5354C0.839151 31.3483 1.44763 32.035 2.20823 32.5156C2.96884 32.9962 3.85029 33.2509 4.75 33.25H33.25C34.1496 33.2502 35.0307 32.995 35.7909 32.514C36.551 32.033 37.159 31.346 37.544 30.533L21.9403 20.9689L19 22.7668L16.0574 20.9689V20.9713ZM24.2179 19.5795L38 28.0274V11.1554L24.2179 19.5771V19.5795Z" fill="#858585"/>
</svg>
