<svg width="36" height="36" viewBox="0 0 36 36" fill="none" xmlns="http://www.w3.org/2000/svg">
<path d="M30.0579 25.2855C33.8852 21.87 36.0002 18 36.0002 18C36.0002 18 29.2502 5.625 18.0002 5.625C15.8392 5.63244 13.7028 6.08271 11.7227 6.948L13.4552 8.68275C14.9119 8.1521 16.4498 7.87878 18.0002 7.875C22.7702 7.875 26.7279 10.503 29.6282 13.4032C31.024 14.8066 32.2752 16.3465 33.3632 18C33.2327 18.1958 33.0887 18.4117 32.9244 18.648C32.1707 19.728 31.0569 21.168 29.6282 22.5968C29.2569 22.968 28.8699 23.3348 28.4649 23.6903L30.0579 25.2855Z" fill="#858585"/>
<path d="M25.4181 20.646C25.9202 19.2416 26.0132 17.7236 25.6862 16.2684C25.3593 14.8133 24.6258 13.4809 23.5712 12.4263C22.5166 11.3718 21.1843 10.6383 19.7291 10.3114C18.274 9.98442 16.7559 10.0774 15.3516 10.5795L17.2033 12.4313C18.068 12.3075 18.9497 12.3868 19.7784 12.6629C20.6071 12.939 21.3601 13.4044 21.9778 14.022C22.5955 14.6397 23.0608 15.3927 23.3369 16.2214C23.613 17.0502 23.6923 17.9318 23.5686 18.7965L25.4181 20.646ZM18.7963 23.5688L20.6458 25.4183C19.2415 25.9204 17.7234 26.0133 16.2683 25.6864C14.8131 25.3594 13.4808 24.626 12.4262 23.5714C11.3716 22.5168 10.6381 21.1844 10.3112 19.7293C9.98424 18.2742 10.0772 16.7561 10.5793 15.3518L12.4311 17.2035C12.3073 18.0682 12.3866 18.9498 12.6627 19.7786C12.9389 20.6073 13.4042 21.3603 14.0218 21.978C14.6395 22.5956 15.3925 23.061 16.2213 23.3371C17.05 23.6132 17.9316 23.6925 18.7963 23.5688Z" fill="#858585"/>
<path d="M7.5375 12.3075C7.1325 12.6675 6.74325 13.032 6.372 13.4032C4.9762 14.8065 3.72492 16.3465 2.637 18L3.07575 18.648C3.8295 19.728 4.94325 21.168 6.372 22.5967C9.27225 25.497 13.2323 28.125 18 28.125C19.611 28.125 21.1275 27.8257 22.545 27.315L24.2775 29.052C22.2974 29.9172 20.1609 30.3675 18 30.375C6.75 30.375 0 18 0 18C0 18 2.11275 14.1277 5.94225 10.7145L7.53525 12.3097L7.5375 12.3075ZM30.7035 32.2965L3.7035 5.29649L5.2965 3.70349L32.2965 30.7035L30.7035 32.2965Z" fill="#858585"/>
</svg>
