<svg width="36" height="36" viewBox="0 0 36 36" fill="none" xmlns="http://www.w3.org/2000/svg">
<path d="M36 18C36 18 29.25 5.625 18 5.625C6.75 5.625 0 18 0 18C0 18 6.75 30.375 18 30.375C29.25 30.375 36 18 36 18ZM2.63925 18C3.72716 16.3465 4.97844 14.8065 6.37425 13.4032C9.27 10.503 13.23 7.875 18 7.875C22.77 7.875 26.7278 10.503 29.628 13.4032C31.0238 14.8065 32.2751 16.3465 33.363 18C33.2325 18.1958 33.0885 18.4117 32.9243 18.648C32.1705 19.728 31.0568 21.168 29.628 22.5968C26.7278 25.497 22.7677 28.125 18 28.125C13.23 28.125 9.27225 25.497 6.372 22.5968C4.9762 21.1934 3.72492 19.6535 2.637 18H2.63925Z" fill="#858585"/>
<path d="M18 12.375C16.5082 12.375 15.0774 12.9676 14.0225 14.0225C12.9676 15.0774 12.375 16.5082 12.375 18C12.375 19.4918 12.9676 20.9226 14.0225 21.9775C15.0774 23.0324 16.5082 23.625 18 23.625C19.4918 23.625 20.9226 23.0324 21.9775 21.9775C23.0324 20.9226 23.625 19.4918 23.625 18C23.625 16.5082 23.0324 15.0774 21.9775 14.0225C20.9226 12.9676 19.4918 12.375 18 12.375ZM10.125 18C10.125 15.9114 10.9547 13.9084 12.4315 12.4315C13.9084 10.9547 15.9114 10.125 18 10.125C20.0886 10.125 22.0916 10.9547 23.5685 12.4315C25.0453 13.9084 25.875 15.9114 25.875 18C25.875 20.0886 25.0453 22.0916 23.5685 23.5685C22.0916 25.0453 20.0886 25.875 18 25.875C15.9114 25.875 13.9084 25.0453 12.4315 23.5685C10.9547 22.0916 10.125 20.0886 10.125 18Z" fill="#858585"/>
</svg>
