<svg width="48" height="37" viewBox="0 0 48 37" fill="none" xmlns="http://www.w3.org/2000/svg">
<path d="M24 2.3125C25.5913 2.3125 27.1174 2.79978 28.2426 3.66713C29.3679 4.53449 30 5.71087 30 6.9375V16.1875H18V6.9375C18 5.71087 18.6321 4.53449 19.7574 3.66713C20.8826 2.79978 22.4087 2.3125 24 2.3125ZM33 16.1875V6.9375C33 5.09756 32.0518 3.33298 30.364 2.03195C28.6761 0.730913 26.3869 0 24 0C21.6131 0 19.3239 0.730913 17.636 2.03195C15.9482 3.33298 15 5.09756 15 6.9375V16.1875C13.4087 16.1875 11.8826 16.6748 10.7574 17.5421C9.63214 18.4095 9 19.5859 9 20.8125V32.375C9 33.6016 9.63214 34.778 10.7574 35.6454C11.8826 36.5127 13.4087 37 15 37H33C34.5913 37 36.1174 36.5127 37.2426 35.6454C38.3679 34.778 39 33.6016 39 32.375V20.8125C39 19.5859 38.3679 18.4095 37.2426 17.5421C36.1174 16.6748 34.5913 16.1875 33 16.1875Z" fill="#858585"/>
</svg>
