<svg width="34" height="31" viewBox="0 0 34 31" fill="none" xmlns="http://www.w3.org/2000/svg">
<path d="M0 1.10714C0 0.81351 0.119406 0.531904 0.331949 0.324275C0.544492 0.116645 0.832762 0 1.13334 0H4.53338C4.78618 6.82254e-05 5.03171 0.0827051 5.23091 0.234769C5.4301 0.386833 5.57154 0.599593 5.63272 0.839214L6.55073 4.42857H32.867C33.0391 4.42862 33.209 4.46698 33.3637 4.54073C33.5184 4.61449 33.6539 4.7217 33.7599 4.85425C33.8658 4.98678 33.9395 5.14116 33.9753 5.30567C34.011 5.47017 34.008 5.64047 33.9663 5.80364L30.5663 19.0894C30.5051 19.329 30.3637 19.5417 30.1645 19.6938C29.9653 19.8459 29.7197 19.9285 29.4669 19.9286H9.06675C8.81394 19.9285 8.56842 19.8459 8.36922 19.6938C8.17002 19.5417 8.02859 19.329 7.96741 19.0894L3.64937 2.21429H1.13334C0.832762 2.21429 0.544492 2.09764 0.331949 1.89001C0.119406 1.68238 0 1.40078 0 1.10714ZM7.1174 6.64286L8.25074 11.0714H11.3334V6.64286H7.1174ZM13.6001 6.64286V11.0714H18.1335V6.64286H13.6001ZM20.4002 6.64286V11.0714H24.9336V6.64286H20.4002ZM27.2003 6.64286V11.0714H30.2829L31.4163 6.64286H27.2003ZM29.7163 13.2857H27.2003V17.7143H28.5829L29.7163 13.2857ZM24.9336 13.2857H20.4002V17.7143H24.9336V13.2857ZM18.1335 13.2857H13.6001V17.7143H18.1335V13.2857ZM11.3334 13.2857H8.81742L9.95076 17.7143H11.3334V13.2857ZM11.3334 24.3571C10.7323 24.3571 10.1557 24.5904 9.73065 25.0057C9.30556 25.4209 9.06675 25.9842 9.06675 26.5714C9.06675 27.1587 9.30556 27.7219 9.73065 28.1372C10.1557 28.5524 10.7323 28.7857 11.3334 28.7857C11.9346 28.7857 12.5111 28.5524 12.9362 28.1372C13.3613 27.7219 13.6001 27.1587 13.6001 26.5714C13.6001 25.9842 13.3613 25.4209 12.9362 25.0057C12.5111 24.5904 11.9346 24.3571 11.3334 24.3571ZM6.80006 26.5714C6.80006 25.3969 7.27768 24.2705 8.12786 23.44C8.97803 22.6094 10.1311 22.1429 11.3334 22.1429C12.5358 22.1429 13.6888 22.6094 14.539 23.44C15.3892 24.2705 15.8668 25.3969 15.8668 26.5714C15.8668 27.746 15.3892 28.8724 14.539 29.7029C13.6888 30.5334 12.5358 31 11.3334 31C10.1311 31 8.97803 30.5334 8.12786 29.7029C7.27768 28.8724 6.80006 27.746 6.80006 26.5714ZM27.2003 24.3571C26.5991 24.3571 26.0225 24.5904 25.5975 25.0057C25.1724 25.4209 24.9336 25.9842 24.9336 26.5714C24.9336 27.1587 25.1724 27.7219 25.5975 28.1372C26.0225 28.5524 26.5991 28.7857 27.2003 28.7857C27.8014 28.7857 28.378 28.5524 28.803 28.1372C29.2281 27.7219 29.4669 27.1587 29.4669 26.5714C29.4669 25.9842 29.2281 25.4209 28.803 25.0057C28.378 24.5904 27.8014 24.3571 27.2003 24.3571ZM22.6669 26.5714C22.6669 25.3969 23.1445 24.2705 23.9947 23.44C24.8448 22.6094 25.9979 22.1429 27.2003 22.1429C28.4026 22.1429 29.5557 22.6094 30.4058 23.44C31.256 24.2705 31.7336 25.3969 31.7336 26.5714C31.7336 27.746 31.256 28.8724 30.4058 29.7029C29.5557 30.5334 28.4026 31 27.2003 31C25.9979 31 24.8448 30.5334 23.9947 29.7029C23.1445 28.8724 22.6669 27.746 22.6669 26.5714Z" fill="white"/>
</svg>
