<svg width="39" height="32" viewBox="0 0 39 32" fill="none" xmlns="http://www.w3.org/2000/svg">
<path d="M0 2.10714C0 1.81351 0.119406 1.5319 0.331949 1.32427C0.544492 1.11665 0.832762 1 1.13334 1H4.53338C4.78618 1.00007 5.03171 1.08271 5.23091 1.23477C5.4301 1.38683 5.57154 1.59959 5.63272 1.83921L6.55073 5.42857H32.867C33.0391 5.42862 33.209 5.46698 33.3637 5.54073C33.5184 5.61449 33.6539 5.7217 33.7599 5.85424C33.8658 5.98679 33.9395 6.14116 33.9753 6.30567C34.011 6.47017 34.008 6.64047 33.9663 6.80364L30.5663 20.0894C30.5051 20.329 30.3637 20.5417 30.1645 20.6938C29.9653 20.8459 29.7197 20.9285 29.4669 20.9286H9.06675C8.81394 20.9285 8.56842 20.8459 8.36922 20.6938C8.17002 20.5417 8.02859 20.329 7.96741 20.0894L3.64937 3.21429H1.13334C0.832762 3.21429 0.544492 3.09764 0.331949 2.89001C0.119406 2.68238 0 2.40078 0 2.10714ZM7.1174 7.64286L8.25074 12.0714H11.3334V7.64286H7.1174ZM13.6001 7.64286V12.0714H18.1335V7.64286H13.6001ZM20.4002 7.64286V12.0714H24.9336V7.64286H20.4002ZM27.2003 7.64286V12.0714H30.2829L31.4163 7.64286H27.2003ZM29.7163 14.2857H27.2003V18.7143H28.5829L29.7163 14.2857ZM24.9336 14.2857H20.4002V18.7143H24.9336V14.2857ZM18.1335 14.2857H13.6001V18.7143H18.1335V14.2857ZM11.3334 14.2857H8.81742L9.95076 18.7143H11.3334V14.2857ZM11.3334 25.3571C10.7323 25.3571 10.1557 25.5904 9.73065 26.0057C9.30556 26.421 9.06675 26.9842 9.06675 27.5714C9.06675 28.1587 9.30556 28.7219 9.73065 29.1372C10.1557 29.5524 10.7323 29.7857 11.3334 29.7857C11.9346 29.7857 12.5111 29.5524 12.9362 29.1372C13.3613 28.7219 13.6001 28.1587 13.6001 27.5714C13.6001 26.9842 13.3613 26.421 12.9362 26.0057C12.5111 25.5904 11.9346 25.3571 11.3334 25.3571ZM6.80006 27.5714C6.80006 26.3969 7.27768 25.2705 8.12786 24.44C8.97803 23.6094 10.1311 23.1429 11.3334 23.1429C12.5358 23.1429 13.6888 23.6094 14.539 24.44C15.3892 25.2705 15.8668 26.3969 15.8668 27.5714C15.8668 28.746 15.3892 29.8724 14.539 30.7029C13.6888 31.5334 12.5358 32 11.3334 32C10.1311 32 8.97803 31.5334 8.12786 30.7029C7.27768 29.8724 6.80006 28.746 6.80006 27.5714ZM27.2003 25.3571C26.5991 25.3571 26.0225 25.5904 25.5975 26.0057C25.1724 26.421 24.9336 26.9842 24.9336 27.5714C24.9336 28.1587 25.1724 28.7219 25.5975 29.1372C26.0225 29.5524 26.5991 29.7857 27.2003 29.7857C27.8014 29.7857 28.378 29.5524 28.803 29.1372C29.2281 28.7219 29.4669 28.1587 29.4669 27.5714C29.4669 26.9842 29.2281 26.421 28.803 26.0057C28.378 25.5904 27.8014 25.3571 27.2003 25.3571ZM22.6669 27.5714C22.6669 26.3969 23.1445 25.2705 23.9947 24.44C24.8448 23.6094 25.9979 23.1429 27.2003 23.1429C28.4026 23.1429 29.5557 23.6094 30.4058 24.44C31.256 25.2705 31.7336 26.3969 31.7336 27.5714C31.7336 28.746 31.256 29.8724 30.4058 30.7029C29.5557 31.5334 28.4026 32 27.2003 32C25.9979 32 24.8448 31.5334 23.9947 30.7029C23.1445 29.8724 22.6669 28.746 22.6669 27.5714Z" fill="white"/>
<circle cx="34" cy="5" r="5" fill="#D31420"/>
</svg>
