<svg width="339" height="149" viewBox="0 0 339 149" fill="none" xmlns="http://www.w3.org/2000/svg">
<g clip-path="url(#clip0_32_617)">
<path d="M100.854 122.682C99.688 131.802 95.4025 140.146 90.8306 148.183C90.6795 148.457 90.5239 148.726 90.3646 149H42.8473C41.8863 148.751 40.9376 148.477 39.993 148.183C34.626 146.551 29.5592 144.062 24.9895 140.811C7.50788 128.232 0.780962 104.463 3.81936 83.1642C5.70865 69.9317 11.5235 56.4215 22.8466 49.2947C28.8252 45.5251 36.5047 44.2999 43.387 45.7007C43.5671 45.7334 43.747 45.7743 43.9309 45.811C49.8522 47.1424 55.1273 50.4506 58.1289 55.7803C63.5266 65.3575 60.3125 77.2219 57.6587 87.8814C55.0128 98.5409 53.5774 111.3 61.2572 119.162C58.7217 111.708 61.2244 102.817 67.2806 97.7771C71.8565 93.9748 78.2276 92.5495 84.0384 93.7298C84.5945 93.8482 85.1426 93.983 85.6823 94.1464C86.9869 94.5279 88.2446 95.054 89.4321 95.7147C98.4898 100.767 102.158 112.402 100.854 122.682Z" fill="#B8B6B6" fill-opacity="0.71"/>
<path d="M72.6785 148.183C73.9951 148.489 75.316 148.759 76.645 149H69.4602C68.5196 148.747 67.5831 148.477 66.655 148.183C64.6144 147.546 62.6052 146.815 60.6274 145.99C52.6942 142.665 45.3867 137.675 39.858 131.034C37.1541 127.817 34.9461 124.214 33.307 120.346C31.5296 115.974 30.4 111.366 29.9539 106.668C28.952 97.0297 29.9743 87.1258 31.8839 77.6588C33.8547 67.8468 37.0359 58.3167 41.3547 49.2865C41.8741 48.2043 42.4111 47.1288 42.9659 46.0601C43.004 45.9721 43.0618 45.894 43.1348 45.8317C43.2078 45.7695 43.294 45.7246 43.387 45.7007C43.5757 45.6642 43.7713 45.7038 43.9309 45.811C44.1224 45.9207 44.2644 46.0997 44.3276 46.311C44.3907 46.5223 44.3702 46.7497 44.2703 46.9464C39.8174 55.6193 36.4419 64.803 34.2189 74.2935C32.0435 83.5522 30.8085 93.2397 31.2296 102.76C31.6304 111.655 33.9573 120.403 39.2364 127.677C44.0577 134.318 50.7149 139.553 58.0798 143.119C62.7413 145.346 67.6381 147.045 72.6785 148.183V148.183Z" fill="white"/>
<path d="M88.4467 149H86.3284C86.0912 148.73 85.8622 148.457 85.6373 148.183C80.8124 142.328 77.5438 135.353 76.1338 127.901C74.4214 118.603 75.7535 109.001 79.9327 100.518C81.0987 98.1388 82.4725 95.8674 84.0383 93.7298C84.5944 93.8482 85.1425 93.983 85.6822 94.1464C81.5637 99.5961 78.7936 105.941 77.5977 112.664C76.531 118.963 76.8856 125.421 78.6359 131.566C80.3862 137.711 83.4879 143.388 87.7147 148.183C87.9517 148.457 88.1971 148.73 88.4467 149Z" fill="white"/>
<path d="M279.268 142.054C279.575 144.461 280.706 146.663 281.913 148.784C281.953 148.857 281.994 148.928 282.036 149H294.577C294.83 148.934 295.081 148.862 295.33 148.784C296.746 148.354 298.084 147.697 299.29 146.839C303.903 143.519 305.679 137.246 304.877 131.625C304.378 128.132 302.844 124.567 299.855 122.686C298.232 121.699 296.296 121.36 294.434 121.737C294.387 121.746 294.339 121.757 294.291 121.767C293.516 121.916 292.781 122.228 292.135 122.681C291.489 123.135 290.947 123.72 290.544 124.398C289.119 126.925 289.967 130.056 290.668 132.87C291.366 135.683 291.745 139.05 289.718 141.125C290.015 140.257 290.075 139.326 289.893 138.428C289.71 137.529 289.291 136.695 288.679 136.011C288.067 135.328 287.283 134.82 286.409 134.539C285.535 134.258 284.602 134.215 283.706 134.413C283.559 134.444 283.414 134.48 283.272 134.523C282.927 134.624 282.595 134.763 282.282 134.937C279.892 136.27 278.924 139.341 279.268 142.054Z" fill="#F2F2F2"/>
<path d="M286.704 148.784C286.356 148.865 286.008 148.936 285.657 149H287.553C287.801 148.933 288.049 148.862 288.294 148.784C288.832 148.616 289.362 148.423 289.884 148.206C292.001 147.347 293.881 145.993 295.366 144.258C296.079 143.409 296.662 142.459 297.095 141.438C297.564 140.284 297.862 139.068 297.98 137.828C298.195 135.265 298.023 132.684 297.47 130.172C296.95 127.582 296.111 125.067 294.971 122.684C294.834 122.398 294.692 122.114 294.545 121.832C294.535 121.809 294.52 121.788 294.501 121.772C294.482 121.756 294.459 121.744 294.434 121.737C294.385 121.728 294.333 121.738 294.291 121.767C294.24 121.795 294.203 121.843 294.186 121.899C294.169 121.954 294.175 122.014 294.201 122.066C295.376 124.355 296.267 126.779 296.854 129.284C297.458 131.74 297.724 134.268 297.643 136.796C297.6 139.148 296.865 141.435 295.53 143.372C294.231 145.117 292.524 146.517 290.557 147.448C289.326 148.036 288.034 148.484 286.704 148.784Z" fill="white"/>
<path d="M282.542 149H283.101C283.164 148.929 283.224 148.857 283.284 148.784C284.557 147.239 285.42 145.398 285.792 143.432C286.244 140.978 285.892 138.444 284.789 136.205C284.482 135.577 284.119 134.977 283.706 134.413C283.559 134.444 283.414 134.48 283.272 134.523C284.359 135.961 285.09 137.636 285.405 139.41C285.687 141.073 285.593 142.777 285.131 144.399C284.67 146.021 283.851 147.519 282.735 148.784C282.673 148.857 282.608 148.929 282.542 149Z" fill="white"/>
<path d="M166.233 86.7906H126.983L126.567 74.7381C126.549 74.2157 126.645 73.6955 126.847 73.2134C127.05 72.7314 127.355 72.2989 127.741 71.9458C128.127 71.5926 128.585 71.3272 129.083 71.1677C129.582 71.0083 130.109 70.9586 130.628 71.0221L153.469 73.8154H153.471C156.858 73.8245 160.102 75.1738 162.494 77.5676C164.886 79.9614 166.23 83.2045 166.233 86.5864V86.7906Z" fill="#FCA933"/>
<path d="M148.739 44.0385H121.365C121.001 44.0384 120.64 44.1099 120.304 44.249C119.967 44.3881 119.662 44.5921 119.404 44.8492C119.147 45.1063 118.943 45.4115 118.803 45.7475C118.664 46.0834 118.593 46.4435 118.593 46.8071V74.1469C118.593 74.5105 118.664 74.8706 118.803 75.2065C118.943 75.5425 119.147 75.8477 119.404 76.1049C119.662 76.362 119.967 76.5659 120.304 76.705C120.64 76.8441 121.001 76.9156 121.365 76.9155H148.739C149.103 76.9156 149.464 76.8441 149.8 76.705C150.136 76.5659 150.442 76.362 150.7 76.1049C150.957 75.8477 151.161 75.5425 151.3 75.2066C151.44 74.8706 151.511 74.5106 151.511 74.1469V46.8071C151.511 46.4435 151.44 46.0834 151.3 45.7475C151.161 45.4115 150.957 45.1063 150.7 44.8492C150.442 44.5921 150.136 44.3881 149.8 44.249C149.464 44.1099 149.103 44.0384 148.739 44.0385V44.0385Z" fill="#CCCCCC"/>
<path d="M142.574 64.4822L129.649 66.996C128.883 67.1442 128.089 66.9826 127.441 66.5467C126.793 66.1108 126.345 65.4362 126.195 64.6708L125.202 59.5754C125.053 58.8098 125.215 58.0165 125.652 57.3698C126.088 56.7231 126.764 56.2757 127.53 56.1258L140.455 53.612C141.221 53.4638 142.015 53.6254 142.663 54.0613C143.31 54.4972 143.758 55.1718 143.909 55.9371L144.902 61.0325C145.05 61.7982 144.889 62.5914 144.452 63.2382C144.016 63.8849 143.34 64.3323 142.574 64.4822Z" fill="#3F3D56"/>
<path d="M139.988 58.4625L130.125 60.3809C129.944 60.4159 129.757 60.378 129.605 60.2754C129.452 60.1728 129.347 60.014 129.312 59.8338C129.277 59.6536 129.315 59.4668 129.418 59.3146C129.52 59.1624 129.679 59.0572 129.86 59.0221L139.723 57.1037C139.904 57.0686 140.091 57.1065 140.243 57.2091C140.396 57.3117 140.501 57.4706 140.536 57.6508C140.571 57.831 140.533 58.0177 140.43 58.1699C140.328 58.3222 140.169 58.4274 139.988 58.4625V58.4625Z" fill="white"/>
<path d="M138.071 61.3034L132.969 62.2957C132.789 62.3307 132.602 62.2928 132.449 62.1902C132.297 62.0876 132.192 61.9287 132.156 61.7486C132.121 61.5684 132.159 61.3816 132.262 61.2294C132.365 61.0772 132.524 60.972 132.704 60.9369L137.806 59.9446C137.895 59.9272 137.987 59.9276 138.076 59.9457C138.166 59.9638 138.25 59.9992 138.326 60.05C138.401 60.1008 138.466 60.166 138.516 60.2418C138.567 60.3176 138.601 60.4025 138.619 60.4917C138.636 60.5809 138.636 60.6727 138.618 60.7618C138.6 60.8508 138.564 60.9355 138.513 61.0108C138.462 61.0862 138.397 61.1509 138.321 61.201C138.245 61.2512 138.16 61.286 138.071 61.3034Z" fill="white"/>
<path d="M151.511 46.8071V50.4409H118.593V46.8071C118.593 46.4435 118.664 46.0834 118.803 45.7475C118.943 45.4115 119.147 45.1063 119.404 44.8492C119.662 44.5921 119.967 44.3881 120.304 44.249C120.64 44.1099 121.001 44.0384 121.365 44.0385H148.739C149.103 44.0384 149.464 44.1099 149.8 44.249C150.136 44.3881 150.442 44.5921 150.7 44.8492C150.957 45.1063 151.161 45.4115 151.3 45.7475C151.44 46.0834 151.511 46.4435 151.511 46.8071Z" fill="#B3B3B3"/>
<path d="M217.247 51.5788C217.056 50.9661 216.734 50.4025 216.303 49.9276C215.871 49.4528 215.34 49.0783 214.748 48.8304C214.155 48.5826 213.516 48.4675 212.874 48.4932C212.232 48.519 211.604 48.6849 211.034 48.9793L173.373 35.4843L171.714 44.8808L209.255 55.1912C209.814 56.1157 210.693 56.8034 211.725 57.1238C212.758 57.4443 213.872 57.3754 214.857 56.9301C215.842 56.4849 216.63 55.6942 217.07 54.7079C217.51 53.7216 217.573 52.6082 217.247 51.5788V51.5788Z" fill="#FFB8B8"/>
<path opacity="0.2" d="M217.247 51.5788C217.056 50.9661 216.734 50.4025 216.303 49.9276C215.871 49.4528 215.34 49.0783 214.748 48.8304C214.155 48.5826 213.516 48.4675 212.874 48.4932C212.232 48.519 211.604 48.6849 211.034 48.9793L173.373 35.4843L171.714 44.8808L209.255 55.1912C209.814 56.1157 210.693 56.8034 211.725 57.1238C212.758 57.4443 213.872 57.3754 214.857 56.9301C215.842 56.4849 216.63 55.6942 217.07 54.7079C217.51 53.7216 217.573 52.6082 217.247 51.5788V51.5788Z" fill="black"/>
<path d="M180.057 37.1966L176.501 46.4758C176.4 46.7398 176.243 46.9789 176.041 47.1769C175.839 47.3748 175.596 47.527 175.33 47.6229C175.064 47.7189 174.78 47.7564 174.498 47.7329C174.216 47.7095 173.942 47.6255 173.695 47.4869L165.052 42.6283C163.703 42.1035 162.617 41.0657 162.032 39.7425C161.448 38.4192 161.412 36.9184 161.934 35.5692C162.456 34.22 163.492 33.1324 164.815 32.5449C166.138 31.9574 167.641 31.9178 168.993 32.435L178.645 34.5729C178.921 34.6342 179.181 34.7542 179.407 34.9249C179.632 35.0955 179.819 35.3127 179.953 35.5617C180.087 35.8107 180.165 36.0856 180.183 36.3677C180.202 36.6499 180.159 36.9325 180.057 37.1966V37.1966Z" fill="#FCA933"/>
<path d="M220.211 60.1707L206.716 66.2969L208.488 72.9585C211.909 85.8224 212.817 99.2242 211.162 112.431V112.431L221.029 114.489L229.207 93.6604L226.345 69.9726L220.211 60.1707Z" fill="#FCA933"/>
<path d="M246.689 91.0057C237.822 91.0057 230.597 97.4431 230.246 105.504H263.131C262.781 97.4431 255.555 91.0057 246.689 91.0057Z" fill="#3F3D56"/>
<path d="M239.787 92.3949C239.325 56.0062 218.575 59.3539 218.575 59.3539C218.575 59.3539 218.963 70.6805 219.15 71.0327C232.373 96.0191 210.55 125.312 182.772 119.923C182.248 119.821 181.745 119.718 181.262 119.614C177.742 118.88 174.635 116.835 172.571 113.894C170.508 110.953 169.644 107.337 170.154 103.783C172.891 81.8365 159.281 82.2249 159.281 82.2249H139.38L129.045 72.9352C128.68 72.6073 128.24 72.3737 127.764 72.2547C127.288 72.1357 126.79 72.135 126.314 72.2527C125.837 72.3704 125.397 72.6029 125.031 72.9299C124.666 73.2568 124.386 73.6682 124.216 74.1282L122.886 77.7324C122.886 77.7324 103.258 79.7744 104.894 98.9697H110.962C110.947 99.5151 110.969 100.061 111.027 100.603L156.316 100.236C158.971 100.214 161.314 102.362 161.325 105.014C161.328 105.659 161.2 106.299 160.95 106.894C160.7 107.489 160.332 108.028 159.868 108.477C159.404 108.927 158.855 109.279 158.252 109.511C157.649 109.744 157.005 109.853 156.359 109.831L149.058 109.588C146.809 119.594 152.329 126.333 158.412 130.57C164.139 134.502 170.935 136.587 177.884 136.543H197.72C223.482 136.543 227.98 114.898 227.98 114.898C241.475 109.18 239.787 92.3949 239.787 92.3949Z" fill="#3F3D56"/>
<path d="M245.462 148.387C258.166 148.387 268.464 138.102 268.464 125.414C268.464 112.727 258.166 102.441 245.462 102.441C232.758 102.441 222.46 112.727 222.46 125.414C222.46 138.102 232.758 148.387 245.462 148.387Z" fill="#3F3D56"/>
<path d="M245.462 131.045C248.576 131.045 251.1 128.524 251.1 125.414C251.1 122.305 248.576 119.784 245.462 119.784C242.348 119.784 239.824 122.305 239.824 125.414C239.824 128.524 242.348 131.045 245.462 131.045Z" fill="white"/>
<path d="M129.327 148.387C143.95 148.387 155.805 136.548 155.805 121.943C155.805 107.338 143.95 95.4982 129.327 95.4982C114.704 95.4982 102.849 107.338 102.849 121.943C102.849 136.548 114.704 148.387 129.327 148.387Z" fill="#3F3D56"/>
<path d="M129.327 128.424C132.911 128.424 135.817 125.522 135.817 121.943C135.817 118.363 132.911 115.461 129.327 115.461C125.743 115.461 122.837 118.363 122.837 121.943C122.837 125.522 125.743 128.424 129.327 128.424Z" fill="white"/>
<path d="M206.755 68.107L201.899 54.9359C201.646 54.2495 201.531 53.52 201.56 52.7891C201.589 52.0582 201.763 51.3402 202.07 50.6761C202.377 50.012 202.812 49.4149 203.35 48.9187C203.888 48.4225 204.519 48.0371 205.206 47.7844L219.126 42.6665C220.335 42.2217 221.621 42.0192 222.908 42.0705C224.196 42.1218 225.461 42.4259 226.631 42.9655C227.801 43.505 228.853 44.2695 229.727 45.2151C230.601 46.1608 231.281 47.2692 231.726 48.477C232.127 49.561 232.332 50.7078 232.332 51.8637C232.326 53.3313 231.994 54.7794 231.358 56.1026C230.722 57.4258 229.799 58.5909 228.656 59.5132C227.83 60.1748 226.902 60.6975 225.908 61.0607L206.755 68.107Z" fill="#3F3D56"/>
<path d="M232.127 51.8636C232.126 53.3014 231.802 54.7206 231.179 56.0168C230.557 57.3131 229.651 58.4534 228.528 59.3539C226.807 58.9003 225.204 58.0776 223.833 56.9431C222.462 55.8086 221.354 54.3894 220.588 52.7842C219.821 51.179 219.414 49.4264 219.394 47.648C219.374 45.8697 219.742 44.1084 220.473 42.4865C221.875 42.1819 223.328 42.1949 224.725 42.5245C226.122 42.8541 227.428 43.492 228.545 44.3914C229.663 45.2908 230.565 46.4287 231.185 47.7218C231.805 49.0148 232.127 50.43 232.127 51.8636V51.8636Z" fill="#FCA933"/>
<path d="M108.369 101.624C111.531 101.624 114.094 98.5159 114.094 94.6814C114.094 90.8469 111.531 87.7384 108.369 87.7384C105.208 87.7384 102.645 90.8469 102.645 94.6814C102.645 98.5159 105.208 101.624 108.369 101.624Z" fill="#FCA933"/>
<path d="M184.046 119.258H189.059L191.445 106.272L184.045 106.272L184.046 119.258Z" fill="#FFB8B8"/>
<path d="M182.767 117.623L192.64 117.623H192.641C193.467 117.623 194.285 117.785 195.048 118.101C195.812 118.417 196.505 118.88 197.09 119.463C197.674 120.047 198.137 120.74 198.454 121.502C198.77 122.264 198.933 123.081 198.932 123.907V124.111L182.767 124.111L182.767 117.623Z" fill="#2F2E41"/>
<path d="M189.865 113.928C189.807 113.928 189.748 113.925 189.689 113.92L182.751 113.415C182.471 113.389 182.2 113.299 181.959 113.152C181.719 113.005 181.516 112.805 181.365 112.567C181.215 112.329 181.121 112.06 181.091 111.78C181.061 111.5 181.096 111.217 181.193 110.953L190.479 90.1177C190.545 89.932 190.572 89.7345 190.558 89.5378C190.544 89.3411 190.49 89.1493 190.398 88.9746C190.307 88.7979 190.179 88.6425 190.023 88.5186C189.867 88.3947 189.687 88.3052 189.494 88.2559C185.128 87.1161 173.926 84.0809 164.228 80.5296C160.073 79.0081 157.457 76.8093 156.451 73.9943C155.125 70.2831 157.087 66.8985 157.171 66.7565L157.237 66.6453L166.362 67.4737L176.254 68.314L197.933 79.9242C199.749 80.9053 201.129 82.5338 201.797 84.4853C202.465 86.4368 202.373 88.5681 201.539 90.4547L191.544 112.839C191.4 113.163 191.164 113.438 190.866 113.632C190.568 113.825 190.22 113.928 189.865 113.928Z" fill="#2F2E41"/>
<path d="M167.948 26.2531C173.495 26.2531 177.992 21.7621 177.992 16.2221C177.992 10.6822 173.495 6.19116 167.948 6.19116C162.401 6.19116 157.905 10.6822 157.905 16.2221C157.905 21.7621 162.401 26.2531 167.948 26.2531Z" fill="#FFB8B8"/>
<path d="M181.183 120.483H186.197L188.582 107.497L181.183 107.497L181.183 120.483Z" fill="#FFB8B8"/>
<path d="M179.905 118.848L189.778 118.848H189.778C190.604 118.848 191.422 119.011 192.186 119.326C192.949 119.642 193.643 120.105 194.227 120.688C194.811 121.272 195.275 121.965 195.591 122.727C195.907 123.49 196.07 124.307 196.07 125.132V125.336L179.905 125.337L179.905 118.848Z" fill="#2F2E41"/>
<path d="M187.003 115.153C186.944 115.153 186.886 115.15 186.827 115.145L179.889 114.64C179.608 114.614 179.337 114.524 179.097 114.377C178.857 114.23 178.654 114.03 178.503 113.792C178.352 113.554 178.259 113.285 178.229 113.005C178.199 112.725 178.234 112.442 178.331 112.178L187.616 91.3429C187.683 91.1572 187.71 90.9597 187.696 90.763C187.682 90.5663 187.628 90.3745 187.536 90.1999C187.445 90.0231 187.317 89.8677 187.161 89.7438C187.005 89.62 186.825 89.5304 186.632 89.4812C182.266 88.3413 171.063 85.3061 161.366 81.7548C157.211 80.2333 154.594 78.0345 153.588 75.2195C152.262 71.5083 154.224 68.1238 154.308 67.9818L154.374 67.8705L163.499 68.6989L173.392 69.5392L195.07 81.1494C196.887 82.1305 198.266 83.759 198.935 85.7105C199.603 87.662 199.511 89.7933 198.676 91.6799L188.682 114.064C188.537 114.388 188.302 114.664 188.004 114.857C187.706 115.05 187.358 115.153 187.003 115.153Z" fill="#2F2E41"/>
<path d="M171.046 31.9411L160.414 28.2654C160.414 28.2654 153.739 33.3869 156.946 46.0919C158.62 52.6482 158.132 59.5689 155.555 65.8264C155.245 66.6007 154.887 67.3551 154.484 68.0854C154.484 68.0854 166.343 82.3798 177.384 71.7611L173.09 51.1364C173.09 51.1364 179.838 37.4546 171.046 31.9411Z" fill="#FCA933"/>
<path d="M169.195 26.5943C167.766 24.4573 166.638 21.4942 168.211 19.461C169.765 17.454 172.829 17.7497 175.208 16.8616C178.522 15.6247 180.444 11.7364 179.845 8.25411C179.246 4.77186 176.447 1.88518 173.112 0.70405C169.778 -0.477085 166.018 -0.0929527 162.753 1.2672C158.733 2.94156 155.286 6.18049 153.84 10.2834C152.394 14.3863 153.167 19.3125 156.166 22.4661C159.382 25.8471 164.429 26.7481 169.098 26.6934" fill="#2F2E41"/>
<path d="M159.853 8.36585C158.051 9.83035 155.303 9.17988 153.37 7.89459C151.436 6.60931 149.867 4.77913 147.775 3.77142C144.087 1.99485 139.628 3.17586 136.038 5.14372C132.449 7.11158 129.267 9.83023 125.475 11.3745C121.684 12.9188 116.845 12.9951 113.974 10.0792C113.268 12.1236 113.21 14.336 113.809 16.4144C114.408 18.4928 115.634 20.3361 117.321 21.6927C119.007 23.0493 121.072 23.8532 123.233 23.9947C125.393 24.1361 127.545 23.6083 129.395 22.4832C133.549 19.9558 135.844 14.6565 140.504 13.2616C143.082 12.4896 145.851 13.1114 148.457 13.7848C151.063 14.4582 153.78 15.1858 156.41 14.6125C159.04 14.0392 161.5 11.6788 161.166 9.01125L159.853 8.36585Z" fill="#2F2E41"/>
<path d="M216.747 51.1702C216.482 50.5856 216.093 50.066 215.606 49.648C215.119 49.23 214.546 48.9237 213.927 48.7508C213.309 48.5778 212.66 48.5424 212.026 48.647C211.393 48.7516 210.79 48.9937 210.26 49.3562L171.22 40.6052L170.735 50.1342L209.262 55.7398C209.931 56.5884 210.888 57.1625 211.953 57.3533C213.017 57.5441 214.114 57.3384 215.037 56.7751C215.959 56.2118 216.643 55.3302 216.958 54.2971C217.273 53.2641 217.198 52.1515 216.747 51.1702V51.1702Z" fill="#FFB8B8"/>
<path d="M178.065 41.4805L175.682 51.1271C175.614 51.4015 175.488 51.6582 175.312 51.8795C175.136 52.1009 174.914 52.2817 174.662 52.4098C174.409 52.5378 174.132 52.61 173.85 52.6215C173.567 52.6329 173.285 52.5834 173.023 52.4762L163.846 48.7198C162.441 48.3662 161.234 47.4703 160.489 46.2289C159.745 44.9874 159.524 43.5018 159.875 42.0979C160.227 40.6941 161.121 39.4867 162.362 38.7407C163.604 37.9947 165.091 37.771 166.497 38.1187L176.339 39.0509C176.621 39.0777 176.894 39.1648 177.139 39.3064C177.384 39.4479 177.595 39.6405 177.759 39.8711C177.923 40.1016 178.035 40.3647 178.088 40.6425C178.141 40.9202 178.133 41.2061 178.065 41.4805V41.4805Z" fill="#FCA933"/>
<path d="M212.237 58.7413C213.818 58.7413 215.099 57.4613 215.099 55.8824C215.099 54.3035 213.818 53.0235 212.237 53.0235C210.656 53.0235 209.374 54.3035 209.374 55.8824C209.374 57.4613 210.656 58.7413 212.237 58.7413Z" fill="#FCA933"/>
<path d="M339 148.592C339 148.7 338.956 148.803 338.88 148.88C338.803 148.957 338.699 149 338.591 149H0.408926C0.300472 149 0.19646 148.957 0.119771 148.88C0.0430829 148.804 0 148.7 0 148.592C0 148.483 0.0430829 148.379 0.119771 148.303C0.19646 148.226 0.300472 148.183 0.408926 148.183H338.591C338.699 148.183 338.803 148.227 338.88 148.303C338.956 148.38 339 148.483 339 148.592V148.592Z" fill="#3F3D56"/>
</g>
<defs>
<clipPath id="clip0_32_617">
<rect width="339" height="149" fill="white"/>
</clipPath>
</defs>
</svg>
