<svg width="278" height="162" viewBox="0 0 278 162" fill="none" xmlns="http://www.w3.org/2000/svg">
<g clip-path="url(#clip0_32_529)">
<g opacity="0.1">
<path opacity="0.1" d="M204.394 159.61C207.362 159.61 209.767 156.451 209.767 152.554C209.767 148.657 207.362 145.498 204.394 145.498C201.427 145.498 199.022 148.657 199.022 152.554C199.022 156.451 201.427 159.61 204.394 159.61Z" fill="#3F3D56"/>
<path opacity="0.1" d="M208.646 122.367C209.399 121.056 209.789 119.567 209.777 118.054C209.777 114.149 207.371 110.998 204.404 110.998C201.437 110.998 199.034 114.156 199.034 118.054C199.019 119.566 199.406 121.055 200.155 122.367C199.42 123.684 199.034 125.169 199.034 126.679C199.034 128.188 199.42 129.673 200.155 130.99C199.42 132.308 199.034 133.793 199.034 135.303C199.034 136.813 199.42 138.298 200.155 139.616C199.406 140.928 199.019 142.417 199.034 143.929C199.034 147.834 201.439 150.985 204.404 150.985C207.369 150.985 209.777 147.827 209.777 143.929C209.792 142.417 209.405 140.928 208.656 139.616C209.391 138.298 209.777 136.813 209.777 135.303C209.777 133.793 209.391 132.308 208.656 130.99C209.391 129.673 209.777 128.188 209.777 126.679C209.777 125.169 209.391 123.684 208.656 122.367H208.646Z" fill="#3F3D56"/>
<path opacity="0.1" d="M204.394 116.487C207.362 116.487 209.767 113.328 209.767 109.431C209.767 105.534 207.362 102.375 204.394 102.375C201.427 102.375 199.022 105.534 199.022 109.431C199.022 113.328 201.427 116.487 204.394 116.487Z" fill="#3F3D56"/>
<path opacity="0.1" d="M204.394 107.862C207.362 107.862 209.767 104.703 209.767 100.805C209.767 96.9084 207.362 93.7493 204.394 93.7493C201.427 93.7493 199.022 96.9084 199.022 100.805C199.022 104.703 201.427 107.862 204.394 107.862Z" fill="#3F3D56"/>
<path opacity="0.1" d="M224.504 41.7832C225.237 40.8452 225.905 39.8576 226.503 38.8275L212.396 36.5014L227.663 36.6161C229.126 33.4185 229.924 29.9549 230.008 26.4373C230.091 22.9196 229.459 19.4218 228.15 16.1578L207.666 26.8141L226.559 12.8872C224.788 9.82082 222.408 7.15302 219.566 5.04983C216.723 2.94664 213.48 1.45308 210.037 0.662106C206.595 -0.128864 203.027 -0.200308 199.556 0.452222C196.085 1.10475 192.785 2.46729 189.861 4.45502C186.937 6.44275 184.453 9.01312 182.562 12.0061C180.671 14.9991 179.414 18.3507 178.869 21.8523C178.325 25.3538 178.504 28.9304 179.397 32.3593C180.289 35.7882 181.875 38.9961 184.056 41.7832C182.913 43.2425 181.93 44.821 181.123 46.4914L199.445 56.0445L179.909 49.4545C178.535 53.5222 178.193 57.8698 178.915 62.1035C179.637 66.3372 181.4 70.3234 184.044 73.7009C181.059 77.5096 179.202 82.0844 178.685 86.9022C178.169 91.7201 179.014 96.5866 181.123 100.945C183.233 105.304 186.522 108.979 190.615 111.55C194.708 114.121 199.439 115.485 204.268 115.485C209.097 115.485 213.828 114.121 217.921 111.55C222.014 108.979 225.303 105.304 227.413 100.945C229.522 96.5866 230.367 91.7201 229.851 86.9022C229.334 82.0844 227.477 77.5096 224.492 73.7009C228.059 69.1498 229.998 63.5275 229.998 57.7372C229.998 51.9468 228.059 46.3246 224.492 41.7735L224.504 41.7832Z" fill="#FCA933"/>
<path opacity="0.1" d="M178.55 57.7482C178.541 63.5396 180.481 69.1643 184.056 73.7107C181.071 77.5193 179.214 82.0941 178.697 86.912C178.181 91.7298 179.026 96.5963 181.135 100.955C183.245 105.314 186.534 108.989 190.627 111.56C194.72 114.131 199.451 115.495 204.28 115.495C209.109 115.495 213.84 114.131 217.933 111.56C222.026 108.989 225.315 105.314 227.425 100.955C229.534 96.5963 230.379 91.7298 229.863 86.912C229.346 82.0941 227.489 77.5193 224.504 73.7107C227.953 69.3173 178.55 54.8485 178.55 57.7482Z" fill="black"/>
</g>
<g opacity="0.1">
<path opacity="0.1" d="M53.7053 152.064C55.5106 152.064 56.9741 150.14 56.9741 147.768C56.9741 145.396 55.5106 143.472 53.7053 143.472C51.8999 143.472 50.4364 145.396 50.4364 147.768C50.4364 150.14 51.8999 152.064 53.7053 152.064Z" fill="#3F3D56"/>
<path opacity="0.1" d="M56.3053 129.392C56.7616 128.593 56.9976 127.686 56.9888 126.765C56.9888 124.393 55.5295 122.47 53.7175 122.47C51.9055 122.47 50.4486 124.393 50.4486 126.765C50.4391 127.686 50.6742 128.592 51.1296 129.392C50.6832 130.194 50.4488 131.098 50.4488 132.017C50.4488 132.936 50.6832 133.839 51.1296 134.642C50.6832 135.444 50.4488 136.348 50.4488 137.267C50.4488 138.186 50.6832 139.089 51.1296 139.892C50.6738 140.69 50.4387 141.596 50.4486 142.515C50.4486 144.89 51.9079 146.814 53.7175 146.814C55.527 146.814 56.9888 144.89 56.9888 142.515C56.9979 141.595 56.762 140.69 56.3053 139.892C56.7532 139.09 56.9883 138.186 56.9883 137.267C56.9883 136.347 56.7532 135.444 56.3053 134.642C56.7532 133.84 56.9883 132.936 56.9883 132.017C56.9883 131.097 56.7532 130.193 56.3053 129.392V129.392Z" fill="#3F3D56"/>
<path opacity="0.1" d="M53.7053 125.811C55.5106 125.811 56.9741 123.888 56.9741 121.515C56.9741 119.143 55.5106 117.22 53.7053 117.22C51.8999 117.22 50.4364 119.143 50.4364 121.515C50.4364 123.888 51.8999 125.811 53.7053 125.811Z" fill="#3F3D56"/>
<path opacity="0.1" d="M53.7053 120.561C55.5106 120.561 56.9741 118.638 56.9741 116.265C56.9741 113.893 55.5106 111.969 53.7053 111.969C51.8999 111.969 50.4364 113.893 50.4364 116.265C50.4364 118.638 51.8999 120.561 53.7053 120.561Z" fill="#3F3D56"/>
<path opacity="0.1" d="M41.4689 80.3325C41.0225 79.7619 40.6161 79.1608 40.2528 78.5336L48.8458 77.118L39.5524 77.1888C38.6626 75.2431 38.1773 73.1359 38.1258 70.9958C38.0744 68.8556 38.458 66.7274 39.2532 64.7409L51.7133 71.2358L40.2163 62.742C41.2947 60.8765 42.744 59.2537 44.4741 57.9745C46.2043 56.6953 48.1782 55.7871 50.2732 55.3063C52.3681 54.8255 54.5392 54.7825 56.6514 55.1799C58.7636 55.5773 60.7718 56.4067 62.5509 57.6163C64.33 58.826 65.842 60.3901 66.9929 62.2113C68.1438 64.0326 68.9089 66.072 69.2407 68.2028C69.5724 70.3335 69.4637 72.5099 68.9212 74.5967C68.3788 76.6834 67.4142 78.6359 66.0876 80.3325C66.7835 81.2196 67.3821 82.1795 67.8728 83.1955L56.7188 89.0142L68.6122 85.0089C69.4475 87.4861 69.6541 90.1332 69.2133 92.7107C68.7725 95.2882 67.6982 97.7147 66.0876 99.7706C67.9047 102.089 69.0351 104.874 69.3494 107.807C69.6637 110.74 69.1493 113.702 67.865 116.355C66.5807 119.009 64.5783 121.246 62.0868 122.811C59.5953 124.376 56.7152 125.206 53.7758 125.206C50.8364 125.206 47.9563 124.376 45.4648 122.811C42.9733 121.246 40.971 119.009 39.6867 116.355C38.4024 113.702 37.888 110.74 38.2023 107.807C38.5166 104.874 39.6469 102.089 41.4641 99.7706C39.2927 96.9996 38.1122 93.5767 38.1122 90.0515C38.1122 86.5264 39.2927 83.1035 41.4641 80.3325H41.4689Z" fill="#FCA933"/>
<path opacity="0.1" d="M69.4392 90.0515C69.4444 93.5775 68.2635 97.002 66.0876 99.7706C67.9048 102.089 69.0351 104.874 69.3494 107.807C69.6637 110.74 69.1493 113.702 67.865 116.355C66.5807 119.009 64.5784 121.246 62.0868 122.811C59.5953 124.376 56.7153 125.206 53.7758 125.206C50.8364 125.206 47.9564 124.376 45.4648 122.811C42.9733 121.246 40.971 119.009 39.6867 116.355C38.4024 113.702 37.888 110.74 38.2023 107.807C38.5166 104.874 39.6469 102.089 41.4641 99.7706C39.3651 97.1077 69.4392 88.2869 69.4392 90.0515Z" fill="black"/>
</g>
<g opacity="0.1">
<path opacity="0.1" d="M127.401 155.803C129.817 155.803 131.776 153.23 131.776 150.055C131.776 146.88 129.817 144.307 127.401 144.307C124.984 144.307 123.025 146.88 123.025 150.055C123.025 153.23 124.984 155.803 127.401 155.803Z" fill="#3F3D56"/>
<path opacity="0.1" d="M130.864 125.462C131.474 124.393 131.789 123.179 131.776 121.947C131.776 118.774 129.831 116.199 127.398 116.199C124.966 116.199 123.02 118.774 123.02 121.947C123.008 123.18 123.323 124.393 123.935 125.462C123.335 126.535 123.021 127.745 123.021 128.975C123.021 130.206 123.335 131.416 123.935 132.489C123.335 133.562 123.021 134.771 123.021 136.001C123.021 137.231 123.335 138.441 123.935 139.513C123.323 140.582 123.008 141.796 123.02 143.028C123.02 146.201 124.981 148.776 127.398 148.776C129.816 148.776 131.776 146.201 131.776 143.028C131.789 141.796 131.474 140.583 130.864 139.513C131.462 138.44 131.776 137.231 131.776 136.001C131.776 134.771 131.462 133.562 130.864 132.489C131.462 131.415 131.776 130.206 131.776 128.975C131.776 127.745 131.462 126.536 130.864 125.462V125.462Z" fill="#3F3D56"/>
<path opacity="0.1" d="M127.401 120.671C129.817 120.671 131.776 118.097 131.776 114.923C131.776 111.748 129.817 109.175 127.401 109.175C124.984 109.175 123.025 111.748 123.025 114.923C123.025 118.097 124.984 120.671 127.401 120.671Z" fill="#3F3D56"/>
<path opacity="0.1" d="M127.401 113.644C129.817 113.644 131.776 111.07 131.776 107.896C131.776 104.721 129.817 102.148 127.401 102.148C124.984 102.148 123.025 104.721 123.025 107.896C123.025 111.07 124.984 113.644 127.401 113.644Z" fill="#3F3D56"/>
<path opacity="0.1" d="M111.03 59.8131C110.432 59.0497 109.887 58.2456 109.4 57.4065L120.897 55.5125L108.464 55.6052C107.271 53.0004 106.62 50.1787 106.551 47.3128C106.482 44.4468 106.996 41.5969 108.062 38.9373L124.747 47.6215L109.359 36.272C110.797 33.7648 112.734 31.582 115.05 29.8602C117.367 28.1383 120.012 26.9143 122.821 26.2647C125.63 25.6151 128.542 25.5538 131.376 26.0846C134.209 26.6155 136.903 27.7271 139.289 29.35C141.676 30.9729 143.703 33.0723 145.244 35.5168C146.785 37.9614 147.807 40.6986 148.247 43.5575C148.686 46.4164 148.533 49.3356 147.798 52.1325C147.062 54.9294 145.759 57.5441 143.971 59.8131C144.902 61.0023 145.703 62.2887 146.36 63.6499L131.436 71.431L147.35 66.0614C148.468 69.3762 148.744 72.9184 148.154 76.3674C147.564 79.8164 146.127 83.0634 143.971 85.8144C146.403 88.9171 147.916 92.6438 148.336 96.5685C148.757 100.493 148.068 104.458 146.35 108.008C144.631 111.559 141.952 114.552 138.617 116.647C135.283 118.741 131.429 119.852 127.496 119.852C123.562 119.852 119.708 118.741 116.374 116.647C113.04 114.552 110.36 111.559 108.642 108.008C106.923 104.458 106.235 100.493 106.655 96.5685C107.076 92.6438 108.588 88.9171 111.02 85.8144C108.115 82.1062 106.535 77.5259 106.535 72.8088C106.535 68.0918 108.115 63.5115 111.02 59.8033L111.03 59.8131Z" fill="#FCA933"/>
<path opacity="0.1" d="M148.456 72.8198C148.464 77.5378 146.883 82.12 143.971 85.8241C146.403 88.9268 147.916 92.6536 148.336 96.5783C148.757 100.503 148.068 104.467 146.35 108.018C144.631 111.568 141.952 114.562 138.617 116.657C135.283 118.751 131.429 119.862 127.496 119.862C123.562 119.862 119.708 118.751 116.374 116.657C113.04 114.562 110.36 111.568 108.642 108.018C106.923 104.467 106.235 100.503 106.655 96.5783C107.076 92.6536 108.588 88.9268 111.02 85.8241C108.211 82.246 148.456 70.4571 148.456 72.8198Z" fill="black"/>
</g>
<path d="M278 155.285C278 156.962 265.786 158.495 245.591 159.679C241.918 159.891 237.983 160.094 233.809 160.284C230.203 160.447 226.424 160.601 222.471 160.745C218.641 160.882 214.664 161.009 210.541 161.126C197.519 161.5 183.122 161.768 167.829 161.902C164.117 161.937 160.356 161.963 156.546 161.98C152.577 161.998 148.562 162.007 144.502 162.005C70.772 162.005 11.0057 159 11.0057 155.293C11.0057 151.585 70.772 148.581 144.502 148.581C176.244 148.581 205.394 149.14 228.305 150.067L230.811 150.17H230.825C259.686 151.397 278 153.245 278 155.285Z" fill="black" fill-opacity="0.19"/>
<path opacity="0.15" d="M278 155.285C278 156.962 265.786 158.495 245.591 159.679C241.918 159.891 237.983 160.094 233.809 160.284C230.203 160.447 226.424 160.601 222.471 160.745C218.641 160.882 214.664 161.009 210.541 161.126C197.519 161.5 183.122 161.768 167.829 161.902C164.117 161.937 160.356 161.963 156.546 161.98C152.577 161.998 148.562 162.007 144.502 162.005C70.772 162.005 11.0057 159 11.0057 155.293C11.0057 151.585 70.772 148.581 144.502 148.581C176.244 148.581 205.394 149.14 228.305 150.067L230.811 150.17H230.825C259.686 151.397 278 153.245 278 155.285Z" fill="black" fill-opacity="0.94"/>
<path d="M266.994 154.104C266.994 155.505 254.78 156.789 234.585 157.765C230.915 157.943 226.977 158.112 222.806 158.271C219.198 158.407 215.419 158.536 211.467 158.656C207.637 158.77 203.661 158.877 199.537 158.976C186.513 159.288 172.117 159.513 156.823 159.625C153.115 159.653 149.354 159.674 145.54 159.689C141.571 159.703 137.557 159.711 133.498 159.711C59.7688 159.711 0 157.199 0 154.097C0 150.995 59.7688 148.483 133.498 148.483C165.239 148.483 194.388 148.949 217.3 149.725L219.805 149.811H219.822C248.692 150.853 266.994 152.388 266.994 154.104Z" fill="white"/>
<path d="M34.4788 103.11L31.1273 92.812L111.39 91.9309L114.678 102.126L34.4788 103.11Z" fill="white"/>
<path opacity="0.15" d="M34.4788 103.11L31.1273 92.812L111.39 91.9309L114.678 102.126L34.4788 103.11Z" fill="white"/>
<path d="M52.7679 105L50 94.867L116.284 94L119 104.032L52.7679 105Z" fill="black" fill-opacity="0.41"/>
<path d="M166.146 87.2862C157.847 87.2862 151.307 83.9806 146.525 77.3694C141.744 70.7582 139.353 62.7493 139.353 53.3426C139.353 43.8725 141.665 35.8799 146.289 29.3647C150.914 22.8495 157.437 19.5952 165.859 19.6017C174.79 19.6017 181.519 23.0342 186.046 29.8992C190.573 36.7642 192.837 44.7097 192.839 53.7356C192.839 62.6964 190.496 70.5296 185.81 77.2351C181.124 83.9407 174.569 87.291 166.146 87.2862ZM166.389 79.8492C171.848 79.8492 175.929 77.4613 178.63 72.6856C181.332 67.9098 182.682 61.8893 182.682 54.624C182.682 46.537 181.3 39.9152 178.535 34.7587C175.771 29.6022 171.531 27.0232 165.815 27.0216C154.951 27.0216 149.519 35.6813 149.519 53.0009C149.519 70.9014 155.141 79.8508 166.384 79.8492H166.389ZM169.123 151.068H157.12L235.699 20.927H247.476L169.123 151.068ZM238.64 152.403C230.216 152.403 223.649 149.067 218.939 142.396C214.229 135.724 211.864 127.715 211.844 118.367C211.844 108.96 214.14 100.999 218.732 94.4839C223.324 87.9688 229.864 84.7144 238.35 84.7209C247.218 84.7209 253.9 88.1534 258.396 95.0185C262.893 101.883 265.142 109.828 265.143 118.852C265.143 127.755 262.816 135.573 258.161 142.308C253.505 149.043 246.997 152.408 238.635 152.403H238.64ZM238.781 144.776C244.214 144.776 248.273 142.428 250.956 137.734C253.64 133.04 254.982 127.044 254.982 119.746C254.982 111.935 253.624 105.385 250.908 100.095C248.192 94.8053 243.961 92.1563 238.214 92.1481C227.287 92.1481 221.824 100.808 221.824 118.127C221.82 135.895 227.471 144.777 238.776 144.776H238.781Z" fill="#3F3D56"/>
<path d="M166.146 87.2862C157.847 87.2862 151.307 83.9806 146.525 77.3694C141.744 70.7582 139.353 62.7493 139.353 53.3426C139.353 43.8725 141.665 35.8799 146.289 29.3647C150.914 22.8495 157.437 19.5952 165.859 19.6017C174.79 19.6017 181.519 23.0342 186.046 29.8992C190.573 36.7642 192.837 44.7097 192.839 53.7356C192.839 62.6964 190.496 70.5296 185.81 77.2351C181.124 83.9407 174.569 87.291 166.146 87.2862ZM166.389 79.8492C171.848 79.8492 175.929 77.4613 178.63 72.6856C181.332 67.9098 182.682 61.8893 182.682 54.624C182.682 46.537 181.3 39.9152 178.535 34.7587C175.771 29.6022 171.531 27.0232 165.815 27.0216C154.951 27.0216 149.519 35.6813 149.519 53.0009C149.519 70.9014 155.141 79.8508 166.384 79.8492H166.389ZM169.123 151.068H157.12L235.699 20.927H247.476L169.123 151.068ZM238.64 152.403C230.216 152.403 223.649 149.067 218.939 142.396C214.229 135.724 211.864 127.715 211.844 118.367C211.844 108.96 214.14 100.999 218.732 94.4839C223.324 87.9688 229.864 84.7144 238.35 84.7209C247.218 84.7209 253.9 88.1534 258.396 95.0185C262.893 101.883 265.142 109.828 265.143 118.852C265.143 127.755 262.816 135.573 258.161 142.308C253.505 149.043 246.997 152.408 238.635 152.403H238.64ZM238.781 144.776C244.214 144.776 248.273 142.428 250.956 137.734C253.64 133.04 254.982 127.044 254.982 119.746C254.982 111.935 253.624 105.385 250.908 100.095C248.192 94.8053 243.961 92.1563 238.214 92.1481C227.287 92.1481 221.824 100.808 221.824 118.127C221.82 135.895 227.471 144.777 238.776 144.776H238.781Z" fill="white" fill-opacity="0.44"/>
<path opacity="0.15" d="M166.146 87.2862C157.847 87.2862 151.307 83.9806 146.525 77.3694C141.744 70.7582 139.353 62.7493 139.353 53.3426C139.353 43.8725 141.665 35.8799 146.289 29.3647C150.914 22.8495 157.437 19.5952 165.859 19.6017C174.79 19.6017 181.519 23.0342 186.046 29.8992C190.573 36.7642 192.837 44.7097 192.839 53.7356C192.839 62.6964 190.496 70.5296 185.81 77.2351C181.124 83.9407 174.569 87.291 166.146 87.2862ZM166.389 79.8492C171.848 79.8492 175.929 77.4613 178.63 72.6856C181.332 67.9098 182.682 61.8893 182.682 54.624C182.682 46.537 181.3 39.9152 178.535 34.7587C175.771 29.6022 171.531 27.0232 165.815 27.0216C154.951 27.0216 149.519 35.6813 149.519 53.0009C149.519 70.9014 155.141 79.8508 166.384 79.8492H166.389ZM169.123 151.068H157.12L235.699 20.927H247.476L169.123 151.068ZM238.64 152.403C230.216 152.403 223.649 149.067 218.939 142.396C214.229 135.724 211.864 127.715 211.844 118.367C211.844 108.96 214.14 100.999 218.732 94.4839C223.324 87.9688 229.864 84.7144 238.35 84.7209C247.218 84.7209 253.9 88.1534 258.396 95.0185C262.893 101.883 265.142 109.828 265.143 118.852C265.143 127.755 262.816 135.573 258.161 142.308C253.505 149.043 246.997 152.408 238.635 152.403H238.64ZM238.781 144.776C244.214 144.776 248.273 142.428 250.956 137.734C253.64 133.04 254.982 127.044 254.982 119.746C254.982 111.935 253.624 105.385 250.908 100.095C248.192 94.8053 243.961 92.1563 238.214 92.1481C227.287 92.1481 221.824 100.808 221.824 118.127C221.82 135.895 227.471 144.777 238.776 144.776H238.781Z" fill="white"/>
<path d="M158.606 87.2862C150.307 87.2862 143.767 83.9806 138.985 77.3694C134.204 70.7582 131.813 62.7493 131.813 53.3426C131.813 43.8725 134.125 35.8799 138.749 29.3647C143.374 22.8495 149.897 19.5952 158.319 19.6017C167.25 19.6017 173.979 23.0342 178.506 29.8992C183.033 36.7642 185.298 44.7097 185.299 53.7356C185.299 62.6964 182.956 70.5296 178.27 77.2351C173.584 83.9407 167.029 87.291 158.606 87.2862ZM158.849 79.8492C164.309 79.8492 168.389 77.4613 171.09 72.6856C173.792 67.9098 175.142 61.8893 175.142 54.624C175.142 46.537 173.76 39.9152 170.996 34.7587C168.231 29.6022 163.991 27.0232 158.275 27.0216C147.411 27.0216 141.979 35.6813 141.979 53.0009C141.979 70.9014 147.601 79.8508 158.844 79.8492H158.849ZM161.583 151.068H149.58L228.159 20.927H239.936L161.583 151.068ZM231.1 152.403C222.676 152.403 216.11 149.067 211.399 142.396C206.689 135.724 204.324 127.715 204.304 118.367C204.304 108.96 206.6 100.999 211.192 94.4839C215.784 87.9688 222.324 84.7144 230.811 84.7209C239.678 84.7209 246.36 88.1534 250.857 95.0185C255.353 101.883 257.602 109.828 257.604 118.852C257.604 127.755 255.276 135.573 250.621 142.308C245.966 149.043 239.457 152.408 231.095 152.403H231.1ZM231.241 144.776C236.675 144.776 240.733 142.428 243.417 137.734C246.1 133.04 247.442 127.044 247.442 119.746C247.442 111.935 246.084 105.385 243.368 100.095C240.652 94.8053 236.419 92.1563 230.669 92.1481C219.742 92.1481 214.279 100.808 214.279 118.127C214.279 135.895 219.931 144.777 231.236 144.776H231.241Z" fill="white"/>
<path d="M184.864 154.334C185.866 152.469 184.728 150.184 183.419 148.52C182.111 146.855 180.515 145.127 180.549 143.006C180.598 139.962 183.818 138.164 186.387 136.548C188.297 135.35 190.059 133.93 191.635 132.316C192.295 131.694 192.841 130.96 193.248 130.148C193.78 128.957 193.763 127.602 193.734 126.299C193.622 121.951 193.408 117.61 193.092 113.275" stroke="#3F3D56" stroke-width="4" stroke-miterlimit="10"/>
<path d="M197.986 113.036C197.949 112.241 197.714 111.468 197.301 110.788C196.888 110.108 196.311 109.543 195.624 109.146L194.564 111.249L194.595 108.701C194.089 108.553 193.563 108.49 193.036 108.513C192.101 108.557 191.2 108.879 190.447 109.436C189.694 109.994 189.122 110.764 188.805 111.648C188.488 112.531 188.439 113.49 188.664 114.401C188.889 115.313 189.379 116.137 190.071 116.77C190.763 117.402 191.627 117.815 192.552 117.955C193.478 118.095 194.424 117.956 195.271 117.556C196.118 117.157 196.828 116.514 197.312 115.709C197.795 114.905 198.029 113.974 197.986 113.036V113.036Z" fill="#FCA933"/>
<path d="M189.546 145.191C189.049 146.159 188.236 146.926 187.242 147.364C186.249 147.803 185.135 147.884 184.089 147.596C183.042 147.308 182.126 146.668 181.494 145.783C180.862 144.897 180.553 143.821 180.618 142.734C180.682 141.647 181.118 140.615 181.851 139.812C182.584 139.009 183.57 138.483 184.643 138.323C185.716 138.162 186.812 138.377 187.746 138.931C188.681 139.485 189.397 140.345 189.774 141.366L186.817 143.78L190.076 143.018C190.075 143.774 189.893 144.519 189.546 145.191V145.191Z" fill="#FCA933"/>
<path d="M187.209 135.962C186.588 135.991 185.967 135.897 185.382 135.686C184.797 135.474 184.26 135.149 183.8 134.729C183.341 134.309 182.968 133.803 182.704 133.238C182.439 132.674 182.288 132.062 182.259 131.439C182.222 130.695 182.362 129.953 182.668 129.274C182.95 128.64 183.368 128.075 183.892 127.62C184.415 127.165 185.032 126.831 185.698 126.641L185.671 128.593L186.744 126.465C187.998 126.406 189.224 126.85 190.152 127.698C191.08 128.546 191.635 129.729 191.694 130.988C191.752 132.246 191.31 133.476 190.465 134.408C189.62 135.339 188.441 135.896 187.187 135.955L187.209 135.962Z" fill="#FCA933"/>
<path d="M198.698 128.291C198.07 128.333 197.44 128.248 196.844 128.043C196.249 127.837 195.7 127.515 195.23 127.094C194.761 126.673 194.379 126.162 194.109 125.592C193.838 125.021 193.684 124.402 193.654 123.771C193.625 123.14 193.721 122.509 193.937 121.916C194.154 121.323 194.486 120.778 194.914 120.315C195.343 119.852 195.859 119.48 196.433 119.219C197.006 118.959 197.626 118.816 198.256 118.799C199.14 118.755 200.019 118.964 200.79 119.402L199.953 121.701L201.675 120.043C202.599 120.889 203.151 122.068 203.21 123.321C203.231 123.761 203.19 124.202 203.088 124.63C202.853 125.636 202.297 126.538 201.505 127.199C200.712 127.859 199.727 128.243 198.698 128.291V128.291Z" fill="#FCA933"/>
<path opacity="0.1" d="M197.348 114.303C196.256 114.422 195.196 114.764 194.099 114.832C193.002 114.901 191.798 114.637 191.105 113.781C190.73 113.322 190.546 112.738 190.229 112.236C189.931 111.767 189.521 111.381 189.038 111.11C188.734 111.712 188.561 112.372 188.532 113.047C188.502 113.721 188.616 114.394 188.866 115.02C189.115 115.647 189.495 116.213 189.98 116.68C190.465 117.148 191.043 117.507 191.677 117.732C192.311 117.958 192.985 118.046 193.655 117.989C194.326 117.933 194.976 117.734 195.564 117.405C196.151 117.077 196.662 116.627 197.062 116.085C197.463 115.542 197.744 114.921 197.886 114.261C197.706 114.271 197.528 114.283 197.348 114.303Z" fill="black"/>
<path opacity="0.1" d="M198.698 128.291C197.883 128.328 197.071 128.153 196.343 127.783C195.614 127.413 194.994 126.861 194.541 126.179C194.088 125.497 193.818 124.71 193.758 123.892C193.697 123.075 193.848 122.256 194.196 121.515C194.571 121.77 194.894 122.095 195.147 122.472C195.485 122.982 195.69 123.573 196.086 124.041C196.816 124.913 198.083 125.196 199.224 125.145C200.364 125.093 201.468 124.766 202.607 124.657C202.765 124.642 202.925 124.632 203.093 124.627C202.858 125.635 202.302 126.538 201.508 127.199C200.715 127.86 199.728 128.244 198.698 128.291V128.291Z" fill="black"/>
<path opacity="0.1" d="M187.209 135.962C186.588 135.991 185.967 135.897 185.382 135.686C184.797 135.474 184.26 135.149 183.8 134.729C183.341 134.31 182.968 133.803 182.704 133.238C182.439 132.674 182.288 132.062 182.259 131.439C182.222 130.695 182.362 129.953 182.668 129.274C183.058 129.535 183.397 129.866 183.667 130.251C184.035 130.771 184.266 131.371 184.696 131.852C185.494 132.743 186.836 133.058 188.045 133.028C189.254 132.999 190.346 132.716 191.511 132.626C191.222 133.558 190.654 134.378 189.885 134.975C189.115 135.572 188.18 135.917 187.209 135.962V135.962Z" fill="black"/>
<path opacity="0.1" d="M189.546 145.191C188.995 146.277 188.049 147.109 186.904 147.515C185.759 147.921 184.502 147.87 183.394 147.372C182.285 146.874 181.41 145.968 180.949 144.84C180.488 143.713 180.476 142.45 180.916 141.315C181.306 141.572 181.656 141.885 181.955 142.245C182.405 142.796 182.702 143.421 183.222 143.934C184.195 144.885 185.752 145.278 187.143 145.315C187.946 145.322 188.748 145.28 189.546 145.191V145.191Z" fill="black"/>
<path d="M258.073 154.09C259.075 152.225 257.937 149.94 256.628 148.276C255.32 146.611 253.724 144.883 253.758 142.762C253.807 139.718 257.027 137.92 259.596 136.304C261.506 135.106 263.268 133.686 264.844 132.071C265.505 131.45 266.05 130.716 266.457 129.904C266.989 128.713 266.972 127.358 266.943 126.055C266.831 121.707 266.617 117.366 266.301 113.031" stroke="#3F3D56" stroke-width="4" stroke-miterlimit="10"/>
<path d="M271.195 112.792C271.158 111.997 270.923 111.223 270.51 110.544C270.097 109.864 269.52 109.299 268.833 108.901L267.773 111.005L267.804 108.457C267.298 108.309 266.772 108.245 266.245 108.269C265.31 108.313 264.409 108.635 263.656 109.192C262.903 109.75 262.331 110.52 262.014 111.403C261.697 112.287 261.648 113.246 261.873 114.157C262.098 115.069 262.588 115.893 263.28 116.526C263.972 117.158 264.836 117.57 265.761 117.71C266.687 117.85 267.633 117.712 268.48 117.312C269.328 116.913 270.038 116.27 270.521 115.465C271.004 114.661 271.238 113.73 271.195 112.792V112.792Z" fill="#FCA933"/>
<path d="M262.755 144.947C262.258 145.915 261.445 146.682 260.451 147.12C259.458 147.558 258.344 147.64 257.298 147.352C256.251 147.064 255.335 146.424 254.703 145.539C254.071 144.653 253.762 143.577 253.827 142.49C253.892 141.403 254.327 140.371 255.06 139.568C255.793 138.765 256.779 138.239 257.852 138.079C258.926 137.918 260.021 138.133 260.956 138.687C261.89 139.241 262.606 140.101 262.984 141.122L260.026 143.536L263.285 142.774C263.284 143.53 263.102 144.275 262.755 144.947V144.947Z" fill="#FCA933"/>
<path d="M260.418 135.718C259.797 135.747 259.176 135.653 258.591 135.442C258.007 135.23 257.469 134.905 257.009 134.485C256.55 134.065 256.177 133.559 255.913 132.994C255.648 132.43 255.497 131.818 255.468 131.195C255.431 130.451 255.571 129.709 255.877 129.03C256.16 128.396 256.577 127.831 257.101 127.376C257.625 126.921 258.241 126.587 258.907 126.397L258.881 128.349L259.953 126.221H259.965C260.586 126.192 261.207 126.286 261.792 126.497C262.376 126.709 262.914 127.034 263.373 127.454C263.833 127.874 264.206 128.38 264.47 128.945C264.735 129.509 264.886 130.121 264.915 130.744C264.944 131.367 264.85 131.99 264.64 132.576C264.429 133.163 264.105 133.703 263.687 134.164C263.268 134.625 262.763 134.999 262.201 135.264C261.638 135.53 261.029 135.681 260.408 135.711L260.418 135.718Z" fill="#FCA933"/>
<path d="M271.907 128.047C271.279 128.089 270.649 128.004 270.053 127.799C269.458 127.593 268.909 127.271 268.44 126.85C267.97 126.429 267.589 125.918 267.318 125.348C267.047 124.777 266.893 124.158 266.863 123.527C266.834 122.896 266.93 122.265 267.147 121.672C267.363 121.078 267.695 120.534 268.124 120.071C268.552 119.608 269.068 119.236 269.642 118.975C270.216 118.715 270.835 118.572 271.465 118.555C272.349 118.511 273.228 118.72 273.999 119.157L273.162 121.457L274.884 119.799C275.809 120.645 276.361 121.824 276.419 123.077C276.441 123.517 276.4 123.957 276.298 124.386C276.062 125.392 275.506 126.294 274.714 126.955C273.922 127.615 272.936 127.999 271.907 128.047V128.047Z" fill="#FCA933"/>
<path opacity="0.1" d="M270.557 114.059C269.465 114.178 268.405 114.52 267.308 114.588C266.211 114.657 265.007 114.393 264.314 113.536C263.939 113.078 263.755 112.494 263.438 111.991C263.14 111.523 262.73 111.137 262.247 110.866C261.943 111.468 261.77 112.128 261.741 112.803C261.711 113.477 261.825 114.15 262.075 114.776C262.324 115.403 262.704 115.969 263.189 116.436C263.674 116.904 264.252 117.263 264.886 117.488C265.52 117.714 266.194 117.802 266.865 117.745C267.535 117.689 268.185 117.49 268.773 117.161C269.36 116.833 269.871 116.383 270.271 115.841C270.672 115.298 270.953 114.677 271.095 114.017C270.915 114.027 270.737 114.039 270.557 114.059Z" fill="black"/>
<path opacity="0.1" d="M271.907 128.047C271.092 128.084 270.28 127.909 269.552 127.539C268.823 127.169 268.203 126.616 267.75 125.935C267.297 125.253 267.027 124.465 266.967 123.648C266.906 122.831 267.057 122.012 267.405 121.271C267.78 121.526 268.103 121.851 268.356 122.228C268.694 122.738 268.899 123.329 269.295 123.797C270.025 124.669 271.292 124.952 272.433 124.901C273.573 124.849 274.678 124.522 275.816 124.412C275.974 124.398 276.135 124.388 276.302 124.383C276.067 125.391 275.511 126.294 274.717 126.955C273.924 127.616 272.937 128 271.907 128.047V128.047Z" fill="black"/>
<path opacity="0.1" d="M260.418 135.718C259.797 135.747 259.176 135.653 258.591 135.442C258.007 135.23 257.469 134.905 257.009 134.485C256.55 134.065 256.177 133.559 255.913 132.994C255.648 132.43 255.497 131.818 255.468 131.195C255.431 130.451 255.571 129.709 255.877 129.03C256.267 129.291 256.606 129.622 256.876 130.007C257.244 130.527 257.475 131.127 257.905 131.608C258.703 132.499 260.046 132.813 261.254 132.784C262.427 132.76 263.555 132.472 264.72 132.381C264.431 133.314 263.863 134.134 263.094 134.731C262.324 135.328 261.389 135.673 260.418 135.718V135.718Z" fill="black"/>
<path opacity="0.1" d="M262.755 144.946C262.204 146.033 261.258 146.865 260.113 147.271C258.968 147.677 257.712 147.626 256.603 147.128C255.495 146.63 254.619 145.723 254.158 144.596C253.697 143.469 253.685 142.206 254.126 141.071C254.515 141.328 254.865 141.641 255.164 142C255.614 142.552 255.911 143.177 256.431 143.689C257.404 144.641 258.961 145.034 260.352 145.071C261.155 145.078 261.957 145.036 262.755 144.946V144.946Z" fill="black"/>
<path d="M26.7371 150.917C25.7351 149.052 26.8733 146.767 28.1818 145.103C29.4904 143.438 31.0859 141.71 31.0518 139.589C31.0032 136.545 27.783 134.747 25.2146 133.131C23.3044 131.933 21.5425 130.513 19.9659 128.899C19.3057 128.277 18.7598 127.543 18.3533 126.731C17.8207 125.54 17.8377 124.185 17.8669 122.882C17.9788 118.534 18.1928 114.193 18.509 109.858" stroke="#3F3D56" stroke-width="4" stroke-miterlimit="10"/>
<path d="M13.6155 109.619C13.652 108.824 13.8875 108.05 14.3003 107.371C14.713 106.691 15.2897 106.126 15.9771 105.728L17.0376 107.832L17.0059 105.284C17.5118 105.136 18.0385 105.072 18.565 105.096C19.5 105.14 20.4011 105.462 21.1542 106.019C21.9073 106.577 22.4787 107.347 22.7961 108.23C23.1134 109.114 23.1625 110.073 22.9372 110.984C22.7118 111.896 22.2221 112.72 21.53 113.353C20.8378 113.985 19.9743 114.397 19.0487 114.537C18.1231 114.677 17.1769 114.539 16.3297 114.139C15.4826 113.74 14.7726 113.097 14.2894 112.292C13.8063 111.488 13.5717 110.557 13.6155 109.619V109.619Z" fill="#FCA933"/>
<path d="M22.0551 141.774C22.5517 142.742 23.365 143.509 24.3586 143.947C25.3522 144.385 26.4657 144.467 27.5123 144.179C28.5589 143.891 29.475 143.251 30.107 142.366C30.739 141.48 31.0485 140.404 30.9835 139.317C30.9185 138.23 30.483 137.198 29.7501 136.395C29.0172 135.592 28.0313 135.066 26.9579 134.906C25.8845 134.745 24.7888 134.96 23.8545 135.514C22.9202 136.068 22.2042 136.928 21.8265 137.949L24.784 140.363L21.5249 139.601C21.5263 140.357 21.7081 141.102 22.0551 141.774V141.774Z" fill="#FCA933"/>
<path d="M24.3925 132.545C25.0134 132.574 25.634 132.48 26.2188 132.269C26.8036 132.057 27.3411 131.732 27.8007 131.312C28.2604 130.892 28.633 130.386 28.8975 129.821C29.1619 129.257 29.313 128.645 29.342 128.022C29.3788 127.278 29.2388 126.536 28.9334 125.857C28.6507 125.223 28.2328 124.658 27.7092 124.203C27.1856 123.748 26.5691 123.414 25.9029 123.224L25.9296 125.176L24.857 123.048C23.6031 122.989 22.3771 123.433 21.4489 124.281C20.5207 125.129 19.9662 126.312 19.9075 127.571C19.8488 128.829 20.2907 130.059 21.1359 130.991C21.9811 131.922 23.1604 132.479 24.4144 132.538L24.3925 132.545Z" fill="#FCA933"/>
<path d="M12.9028 124.874C13.5311 124.916 14.1614 124.831 14.7568 124.626C15.3522 124.42 15.9008 124.098 16.3705 123.677C16.8402 123.256 17.2215 122.745 17.4922 122.175C17.7629 121.604 17.9175 120.985 17.9469 120.354C17.9763 119.723 17.88 119.092 17.6636 118.499C17.4472 117.905 17.1151 117.361 16.6866 116.898C16.2582 116.435 15.742 116.063 15.1683 115.802C14.5946 115.542 13.9749 115.399 13.3455 115.382C12.465 115.341 11.5908 115.55 10.8233 115.985L11.6599 118.284L9.92579 116.634C9.00332 117.477 8.45148 118.653 8.39107 119.904C8.36953 120.344 8.41048 120.785 8.51268 121.213C8.74806 122.219 9.30402 123.121 10.0963 123.782C10.8885 124.442 11.8738 124.826 12.9028 124.874Z" fill="#FCA933"/>
<path opacity="0.1" d="M14.2527 110.886C15.3447 111.005 16.4052 111.347 17.5021 111.415C18.599 111.484 19.8029 111.22 20.4961 110.363C20.8707 109.905 21.0555 109.321 21.3717 108.818C21.6703 108.35 22.0797 107.964 22.5635 107.693C22.8673 108.295 23.0398 108.955 23.0694 109.63C23.0991 110.304 22.9853 110.977 22.7355 111.603C22.4858 112.23 22.1058 112.796 21.621 113.263C21.1362 113.731 20.5576 114.09 19.9239 114.315C19.2901 114.541 18.6157 114.629 17.9456 114.572C17.2755 114.516 16.625 114.317 16.0375 113.988C15.4501 113.66 14.9391 113.21 14.5386 112.668C14.1382 112.125 13.8575 111.504 13.7151 110.844C13.8951 110.854 14.0727 110.866 14.2527 110.886Z" fill="black"/>
<path opacity="0.1" d="M12.9028 124.874C13.7184 124.911 14.5298 124.736 15.2582 124.366C15.9867 123.996 16.6075 123.443 17.0604 122.762C17.5134 122.08 17.7831 121.293 17.8434 120.475C17.9038 119.658 17.7527 118.839 17.4048 118.098C17.0298 118.353 16.707 118.678 16.4538 119.055C16.1157 119.565 15.9114 120.156 15.515 120.624C14.7853 121.496 13.5181 121.779 12.3774 121.728C11.2367 121.676 10.1325 121.349 8.99425 121.239C8.83616 121.225 8.67563 121.215 8.50781 121.21C8.74297 122.218 9.29945 123.121 10.0927 123.782C10.886 124.443 11.8726 124.827 12.9028 124.874V124.874Z" fill="black"/>
<path opacity="0.1" d="M24.3925 132.545C25.0134 132.574 25.634 132.48 26.2188 132.269C26.8036 132.057 27.3412 131.732 27.8008 131.312C28.2604 130.892 28.6331 130.386 28.8975 129.821C29.162 129.257 29.313 128.645 29.342 128.022C29.3789 127.278 29.2388 126.536 28.9334 125.857C28.5432 126.118 28.2043 126.449 27.9338 126.834C27.5665 127.354 27.3355 127.954 26.905 128.435C26.1072 129.326 24.7646 129.641 23.5558 129.611C22.3835 129.587 21.255 129.299 20.09 129.209C20.3787 130.141 20.9467 130.961 21.7165 131.558C22.4863 132.155 23.4207 132.5 24.3925 132.545V132.545Z" fill="black"/>
<path opacity="0.1" d="M22.0552 141.774C22.6059 142.86 23.5517 143.692 24.6968 144.098C25.8418 144.504 27.0986 144.453 28.2071 143.955C29.3156 143.457 30.191 142.551 30.6521 141.423C31.1132 140.296 31.1249 139.033 30.6846 137.898C30.295 138.155 29.945 138.468 29.6461 138.828C29.1961 139.379 28.8994 140.004 28.3789 140.517C27.406 141.468 25.8494 141.861 24.4582 141.898C23.6554 141.905 22.853 141.863 22.0552 141.774V141.774Z" fill="black"/>
<path d="M163.808 128.044C163.813 127.453 163.679 126.868 163.418 126.337C163.157 125.807 162.776 125.345 162.305 124.988C162.247 122.75 160.656 120.922 158.611 120.639C158.453 119.879 158.098 119.173 157.582 118.594C157.067 118.015 156.408 117.582 155.673 117.339V117.339C155.494 117.282 155.311 117.239 155.125 117.21H155.072L154.977 117.198H154.897H154.817H154.712H154.649H154.476C152.389 117.198 150.653 118.799 150.295 120.91C148.945 120.598 147.707 121.003 147.486 121.859C147.429 122.086 147.442 122.326 147.522 122.545C147.751 123.209 148.495 123.844 149.505 124.159L149.636 124.198C149.702 124.217 149.767 124.232 149.833 124.246H149.877C149.506 125.04 149.453 125.947 149.73 126.779C150.006 127.611 150.591 128.304 151.363 128.715C151.332 128.732 151.303 128.751 151.275 128.772C151.151 128.886 151.051 129.026 150.983 129.182C150.74 129.611 150.55 130.069 150.419 130.546C150.322 130.954 150.305 131.381 150.176 131.784C149.955 132.516 149.385 133.158 149.32 133.936C149.291 134.283 149.347 134.69 149.101 134.927C149.04 134.98 148.975 135.028 148.906 135.071C148.734 135.189 148.588 135.342 148.478 135.52C148.407 135.667 148.31 135.801 148.194 135.916C147.972 136.084 147.608 136.067 147.498 136.326C147.389 136.584 147.671 136.89 147.605 137.173C147.552 137.402 147.301 137.507 147.119 137.661C146.915 137.883 146.772 138.155 146.705 138.449C146.342 138.52 145.968 138.509 145.609 138.417C145.25 138.325 144.916 138.156 144.631 137.92C144.729 138.171 144.8 138.432 144.845 138.698C144.555 138.388 144.078 138.298 143.726 138.137C143.271 137.928 142.865 137.625 142.534 137.248L143.171 137.16L140.35 132.865L139.518 132.694L140.265 134.132C140.204 134.161 140.15 134.204 140.108 134.257C140.066 134.31 140.036 134.373 140.022 134.439C139.981 134.598 139.971 134.764 139.992 134.927C140.032 135.313 140.096 135.695 140.184 136.072L140.401 137.082C140.419 137.177 140.443 137.271 140.471 137.363C140.189 137.353 139.907 137.385 139.635 137.458C139.076 137.251 138.493 137.112 137.901 137.046C137.77 137.023 137.636 137.03 137.509 137.065C137.364 137.132 137.239 137.235 137.144 137.363C136.658 137.927 136.226 138.537 135.855 139.184C134.34 141.83 132.316 144.139 130.422 146.531C129.113 147.065 127.795 147.573 126.474 148.076L123.636 149.162C123.069 149.379 122.481 149.601 121.877 149.562C121.605 149.545 121.274 149.503 121.121 149.735C121.046 149.85 120.988 149.975 120.948 150.106C120.849 150.106 120.749 150.131 120.656 150.136H120.639C120.459 149.686 120.304 149.206 119.958 148.879C119.889 148.889 119.823 148.917 119.767 148.96C119.711 149.002 119.666 149.058 119.637 149.123C119.569 149.25 119.528 149.389 119.45 149.506C119.297 149.73 119.032 149.84 118.842 150.031C118.652 150.221 118.533 150.519 118.329 150.704C118.043 150.913 117.707 151.043 117.356 151.083C116.829 151.207 116.321 151.401 115.845 151.659C115.67 151.767 115.482 151.854 115.286 151.917C115.07 151.959 114.85 151.966 114.632 151.939L113.129 151.829C112.995 151.812 112.859 151.818 112.727 151.847C112.573 151.903 112.441 152.01 112.353 152.15C112.265 152.29 112.226 152.455 112.241 152.62C112.259 152.784 112.311 152.942 112.392 153.084C112.474 153.227 112.584 153.352 112.715 153.45C112.976 153.642 113.265 153.793 113.571 153.897C114.878 154.404 116.224 154.8 117.597 155.081V155.386C118.548 155.866 119.598 156.117 120.664 156.118C120.742 156.124 120.821 156.11 120.892 156.076C120.991 156.002 121.059 155.895 121.084 155.774C121.403 154.817 121.605 153.824 121.685 152.818C121.873 152.806 122.057 152.759 122.228 152.679C122.746 152.537 123.259 152.894 123.791 152.952C124.448 153.023 125.059 152.64 125.679 152.403C125.769 152.369 125.859 152.34 125.949 152.31C125.772 152.54 125.563 152.743 125.329 152.913C125.071 153.099 124.781 153.235 124.528 153.428C124.318 153.621 124.093 153.796 123.855 153.953C123.687 154.031 123.514 154.098 123.337 154.153C123.08 154.247 122.835 154.371 122.607 154.522C122.403 154.642 122.229 154.81 122.101 155.01C122.036 155.103 121.997 155.212 121.986 155.325C121.975 155.438 121.993 155.552 122.038 155.656C122.083 155.761 122.155 155.851 122.245 155.92C122.335 155.989 122.441 156.034 122.553 156.049C122.757 156.086 122.964 156.091 123.169 156.067C123.981 156.006 124.791 155.93 125.601 155.857C125.944 155.834 126.285 155.785 126.62 155.71C126.798 155.666 126.973 155.608 127.15 155.561C127.453 155.481 127.764 155.435 128.077 155.422C128.168 155.415 128.259 155.424 128.347 155.449C128.537 155.51 128.67 155.693 128.863 155.742C128.987 155.754 129.113 155.737 129.23 155.691C129.823 155.562 130.428 155.497 131.035 155.498C131.3 155.483 131.611 155.432 131.735 155.185C131.886 154.88 131.633 154.539 131.533 154.209C131.482 154 131.455 153.785 131.45 153.57C131.404 153.038 131.252 152.521 131.003 152.049C130.871 151.829 130.759 151.597 130.67 151.356C131.832 150.912 132.944 150.346 133.987 149.667C134.586 149.293 135.203 148.891 135.879 148.754C136.668 148.595 137.48 148.805 138.256 149.03C140.104 149.566 141.922 150.203 143.701 150.936C144.553 151.285 145.404 151.656 146.275 151.912C146.529 152.257 146.837 152.559 147.187 152.806C147.771 153.184 148.483 153.294 149.169 153.348C150.096 153.433 151.026 153.468 151.956 153.453C152.667 153.44 153.399 153.392 154.033 153.067C154.189 152.987 154.334 152.89 154.469 152.779C154.955 152.867 155.454 152.606 155.836 152.271C156.341 151.84 156.705 151.266 156.882 150.624C157.105 149.743 156.933 148.715 157.473 147.995C157.616 147.802 157.803 147.646 157.944 147.451C158.118 147.189 158.203 146.879 158.188 146.565L158.212 146.528C158.334 146.245 158.416 145.946 158.455 145.64C158.519 145.401 158.6 145.166 158.698 144.939C158.973 144.258 159.211 143.563 159.413 142.857C159.554 142.389 159.665 141.912 159.744 141.429C159.803 141.044 159.837 140.656 159.868 140.268C159.907 139.66 160.025 139.06 160.218 138.483C160.699 137.106 160.97 135.665 161.024 134.207C161.024 134.178 161.024 134.151 161.024 134.122C161.73 134.044 162.382 133.705 162.852 133.17C163.322 132.636 163.576 131.945 163.565 131.232C163.566 130.802 163.476 130.377 163.303 129.985C163.638 129.394 163.813 128.724 163.808 128.044V128.044ZM150.054 144.815C150.096 144.964 150.144 145.112 150.193 145.261C149.969 145.039 149.748 144.81 149.522 144.59C149.612 144.617 149.702 144.646 149.789 144.678C149.882 144.715 149.972 144.761 150.057 144.815H150.054ZM148.965 144.082C147.637 142.926 146.1 142.027 144.74 140.909C145.47 141.278 146.199 141.705 146.929 142.115C147.779 142.603 148.638 143.07 149.507 143.516C149.365 143.733 149.183 143.922 148.972 144.073L148.965 144.082ZM149.531 141.168L149.595 141.102C149.595 141.266 149.595 141.42 149.595 141.559C149.475 141.52 149.351 141.481 149.237 141.437C149.342 141.351 149.441 141.258 149.534 141.158L149.531 141.168ZM137.84 144.302C138.387 143.681 138.862 143.001 139.258 142.274C139.783 143.199 140.639 143.865 141.369 144.639C140.197 144.473 139.022 144.344 137.842 144.292L137.84 144.302Z" fill="url(#paint0_linear_32_529)"/>
<path d="M139.737 133.05L140.576 133.221L143.434 137.458L142.172 137.629L139.737 133.05Z" fill="#2F2E41"/>
<path d="M119.416 150.248C119.642 150.999 119.921 151.733 120.25 152.444C121.197 152.246 122.129 151.979 123.037 151.646C122.862 151.371 122.668 151.108 122.459 150.858C122.235 150.609 121.968 150.403 121.671 150.25C121.381 150.123 121.024 150.218 120.715 150.236C120.282 150.252 119.849 150.256 119.416 150.248Z" fill="#FBBEBE"/>
<path d="M121.676 151.38C121.204 151.231 120.914 150.753 120.722 150.292C120.53 149.83 120.374 149.328 120.009 148.988C119.94 148.999 119.874 149.027 119.818 149.07C119.762 149.112 119.718 149.168 119.688 149.232C119.618 149.354 119.577 149.494 119.496 149.611C119.345 149.83 119.078 149.938 118.886 150.126C118.694 150.314 118.574 150.599 118.368 150.787C118.081 150.994 117.746 151.124 117.395 151.163C116.865 151.284 116.353 151.474 115.872 151.729C115.694 151.833 115.505 151.915 115.308 151.973C115.091 152.015 114.868 152.022 114.649 151.995L113.134 151.886C112.999 151.869 112.862 151.875 112.73 151.905C112.576 151.959 112.444 152.063 112.355 152.201C112.267 152.339 112.228 152.503 112.243 152.667C112.264 152.829 112.317 152.986 112.401 153.127C112.485 153.268 112.597 153.389 112.73 153.484C112.993 153.673 113.284 153.821 113.591 153.924C114.911 154.422 116.269 154.811 117.653 155.088V155.388C118.614 155.865 119.671 156.116 120.744 156.12C120.827 156.128 120.911 156.113 120.987 156.079C121.086 156.006 121.155 155.901 121.182 155.781C121.545 154.714 121.757 153.602 121.812 152.476C121.84 152.191 121.818 151.904 121.748 151.627C121.666 151.353 121.948 151.468 121.685 151.361" fill="#2F2E41"/>
<path d="M150.726 145.649C146.233 145.923 141.797 144.6 137.297 144.458C136.739 144.424 136.178 144.46 135.629 144.566C135.056 144.72 134.502 144.936 133.975 145.21C131.565 146.335 129.069 147.268 126.576 148.2L123.716 149.269C123.142 149.481 122.551 149.699 121.941 149.662C121.668 149.645 121.335 149.603 121.179 149.833C120.715 150.524 120.936 151.541 121.243 152.317C121.342 152.562 121.51 152.842 121.778 152.872C121.967 152.859 122.152 152.811 122.325 152.732C122.845 152.593 123.366 152.945 123.901 153.001C124.565 153.072 125.18 152.693 125.805 152.461C126.841 152.078 127.975 152.091 129.064 151.907C130.893 151.602 132.586 150.751 134.172 149.779C134.775 149.411 135.388 149.015 136.079 148.881C136.874 148.725 137.694 148.93 138.475 149.152C140.336 149.681 142.168 150.307 143.964 151.029C144.899 151.436 145.857 151.787 146.834 152.078C148.963 152.641 151.215 152.509 153.265 151.702C153.994 151.417 154.763 150.914 154.804 150.135C154.829 149.691 154.486 149.301 154.257 148.915C154.109 148.671 153.963 148.427 153.802 148.195C153.029 147.063 152.09 145.566 150.726 145.649Z" fill="#2F2E41"/>
<path opacity="0.1" d="M150.726 145.649C146.233 145.923 141.797 144.6 137.297 144.458C136.739 144.424 136.178 144.46 135.629 144.566C135.056 144.72 134.502 144.936 133.975 145.21C131.565 146.335 129.069 147.268 126.576 148.2L123.716 149.269C123.142 149.481 122.551 149.699 121.941 149.662C121.668 149.645 121.335 149.603 121.179 149.833C120.715 150.524 120.936 151.541 121.243 152.317C121.342 152.562 121.51 152.842 121.778 152.872C121.967 152.859 122.152 152.811 122.325 152.732C122.845 152.593 123.366 152.945 123.901 153.001C124.565 153.072 125.18 152.693 125.805 152.461C126.841 152.078 127.975 152.091 129.064 151.907C130.893 151.602 132.586 150.751 134.172 149.779C134.775 149.411 135.388 149.015 136.079 148.881C136.874 148.725 137.694 148.93 138.475 149.152C140.336 149.681 142.168 150.307 143.964 151.029C144.899 151.436 145.857 151.787 146.834 152.078C148.963 152.641 151.215 152.509 153.265 151.702C153.994 151.417 154.763 150.914 154.804 150.135C154.829 149.691 154.486 149.301 154.257 148.915C154.109 148.671 153.963 148.427 153.802 148.195C153.029 147.063 152.09 145.566 150.726 145.649Z" fill="black"/>
<path d="M128.038 150.467C128.742 150.707 129.45 150.928 130.164 151.131C130.565 150.47 131.314 150.011 131.485 149.257C131.494 149.224 131.494 149.189 131.485 149.157C131.466 149.125 131.438 149.099 131.404 149.084C130.892 148.8 130.323 148.633 129.738 148.595C129.276 148.566 129.067 149.049 128.858 149.389C128.785 149.525 128.225 150.531 128.038 150.467Z" fill="#FBBEBE"/>
<path d="M129.028 149.984C128.818 149.949 128.617 149.87 128.439 149.753C128.261 149.636 128.11 149.483 127.994 149.303C127.895 149.13 127.79 148.896 127.591 148.908C127.391 148.92 127.323 149.14 127.282 149.323C127.147 150.007 126.952 150.677 126.7 151.327C126.446 151.978 126.016 152.545 125.457 152.964C125.197 153.145 124.908 153.282 124.652 153.472C124.44 153.663 124.212 153.836 123.971 153.989C123.802 154.067 123.627 154.132 123.449 154.185C123.186 154.277 122.936 154.399 122.702 154.548C122.497 154.669 122.323 154.836 122.193 155.037C122.131 155.138 122.095 155.254 122.087 155.373C122.079 155.492 122.101 155.611 122.15 155.72C122.202 155.808 122.273 155.885 122.356 155.944C122.44 156.003 122.536 156.044 122.636 156.064C122.841 156.098 123.05 156.103 123.256 156.079C124.076 156.018 124.893 155.945 125.71 155.871C126.056 155.85 126.4 155.803 126.739 155.73C126.919 155.686 127.094 155.627 127.272 155.581C127.578 155.502 127.892 155.457 128.208 155.444C128.3 155.437 128.392 155.446 128.481 155.471C128.67 155.532 128.804 155.715 128.999 155.759C129.124 155.772 129.251 155.755 129.368 155.71C129.967 155.583 130.576 155.519 131.188 155.52C131.455 155.505 131.771 155.454 131.893 155.212C132.046 154.912 131.793 154.575 131.691 154.253C131.641 154.047 131.612 153.836 131.606 153.623C131.56 153.099 131.407 152.59 131.156 152.127C130.947 151.742 130.67 151.317 130.808 150.907C130.883 150.779 130.93 150.637 130.947 150.489C130.913 149.828 129.398 150.072 129.028 149.984Z" fill="#2F2E41"/>
<path d="M143.991 138.42C143.195 138.067 142.557 137.432 142.201 136.636C142.128 136.465 142.065 136.287 141.994 136.113C141.757 135.54 141.391 135.031 140.924 134.625C140.874 134.569 140.813 134.526 140.744 134.497C140.676 134.468 140.602 134.454 140.527 134.456C140.456 134.478 140.391 134.518 140.339 134.573C140.288 134.628 140.252 134.695 140.236 134.769C140.194 134.928 140.183 135.093 140.204 135.257C140.245 135.635 140.31 136.011 140.398 136.382L140.617 137.378C140.645 137.531 140.691 137.68 140.754 137.822C140.847 137.989 140.971 138.137 141.118 138.259C141.318 138.444 141.52 138.623 141.724 138.796C141.837 138.898 141.96 138.988 142.091 139.064C142.307 139.167 142.538 139.234 142.775 139.264C143.667 139.43 144.575 139.67 145.326 140.241C145.326 140.241 145.326 139.574 145.309 139.508C145.3 139.315 145.234 139.129 145.119 138.974C144.837 138.669 144.351 138.579 143.991 138.42Z" fill="#FBBEBE"/>
<path opacity="0.1" d="M143.991 138.42C143.195 138.067 142.557 137.432 142.201 136.636C142.128 136.465 142.065 136.287 141.994 136.113C141.757 135.54 141.391 135.031 140.924 134.625C140.874 134.569 140.813 134.526 140.744 134.497C140.676 134.468 140.602 134.454 140.527 134.456C140.456 134.478 140.391 134.518 140.339 134.573C140.288 134.628 140.252 134.695 140.236 134.769C140.194 134.928 140.183 135.093 140.204 135.257C140.245 135.635 140.31 136.011 140.398 136.382L140.617 137.378C140.645 137.531 140.691 137.68 140.754 137.822C140.847 137.989 140.971 138.137 141.118 138.259C141.318 138.444 141.52 138.623 141.724 138.796C141.837 138.898 141.96 138.988 142.091 139.064C142.307 139.167 142.538 139.234 142.775 139.264C143.667 139.43 144.575 139.67 145.326 140.241C145.326 140.241 145.326 139.574 145.309 139.508C145.3 139.315 145.234 139.129 145.119 138.974C144.837 138.669 144.351 138.579 143.991 138.42Z" fill="black"/>
<path d="M153.136 130.805C153.739 130.805 154.228 130.311 154.228 129.702C154.228 129.092 153.739 128.598 153.136 128.598C152.533 128.598 152.044 129.092 152.044 129.702C152.044 130.311 152.533 130.805 153.136 130.805Z" fill="#2F2E41"/>
<path d="M152.46 129.035C152.167 128.968 151.859 129.012 151.596 129.16C151.47 129.272 151.37 129.41 151.302 129.565C151.056 129.986 150.865 130.437 150.733 130.907C150.636 131.31 150.619 131.73 150.49 132.128C150.266 132.86 149.692 133.482 149.626 134.246C149.597 134.588 149.653 134.991 149.405 135.223C149.343 135.274 149.277 135.321 149.208 135.362C149.035 135.478 148.888 135.629 148.777 135.806C148.703 135.964 148.6 136.108 148.473 136.228C148.25 136.394 147.882 136.377 147.773 136.633C147.663 136.89 147.946 137.187 147.88 137.466C147.826 137.693 147.573 137.798 147.393 137.954C147.188 138.172 147.045 138.44 146.978 138.732C146.612 138.801 146.236 138.79 145.876 138.7C145.515 138.609 145.178 138.441 144.888 138.208C145.192 138.962 145.2 139.794 145.212 140.607C145.247 140.867 145.178 141.13 145.02 141.339C145.89 141.359 146.737 141.583 147.586 141.786C147.949 141.908 148.341 141.908 148.704 141.786C148.898 141.681 149.072 141.542 149.218 141.376C149.68 140.905 150.164 140.399 150.276 139.743C150.305 139.373 150.312 139.002 150.295 138.632C150.34 138.175 150.434 137.724 150.575 137.287C150.819 136.38 150.982 135.453 151.061 134.517C151.112 133.939 151.608 133.475 151.871 132.958C152.358 131.981 152.868 130.968 152.907 129.875C152.941 129.518 152.82 129.082 152.46 129.035Z" fill="#2F2E41"/>
<path opacity="0.1" d="M152.46 129.035C152.167 128.968 151.859 129.012 151.596 129.16C151.47 129.272 151.37 129.41 151.302 129.565C151.056 129.986 150.865 130.437 150.733 130.907C150.636 131.31 150.619 131.73 150.49 132.128C150.266 132.86 149.692 133.482 149.626 134.246C149.597 134.588 149.653 134.991 149.405 135.223C149.343 135.274 149.277 135.321 149.208 135.362C149.035 135.478 148.888 135.629 148.777 135.806C148.703 135.964 148.6 136.108 148.473 136.228C148.25 136.394 147.882 136.377 147.773 136.633C147.663 136.89 147.946 137.187 147.88 137.466C147.826 137.693 147.573 137.798 147.393 137.954C147.188 138.172 147.045 138.44 146.978 138.732C146.612 138.801 146.236 138.79 145.876 138.7C145.515 138.609 145.178 138.441 144.888 138.208C145.192 138.962 145.2 139.794 145.212 140.607C145.247 140.867 145.178 141.13 145.02 141.339C145.89 141.359 146.737 141.583 147.586 141.786C147.949 141.908 148.341 141.908 148.704 141.786C148.898 141.681 149.072 141.542 149.218 141.376C149.68 140.905 150.164 140.399 150.276 139.743C150.305 139.373 150.312 139.002 150.295 138.632C150.34 138.175 150.434 137.724 150.575 137.287C150.819 136.38 150.982 135.453 151.061 134.517C151.112 133.939 151.608 133.475 151.871 132.958C152.358 131.981 152.868 130.968 152.907 129.875C152.941 129.518 152.82 129.082 152.46 129.035Z" fill="black"/>
<path d="M151.438 146.599C150.502 146.152 149.818 145.32 149.062 144.607C147.617 143.245 145.851 142.284 144.334 141.007C143.329 140.163 142.429 139.179 141.323 138.471C140.349 137.848 139.246 137.46 138.098 137.336C137.966 137.313 137.832 137.32 137.704 137.356C137.559 137.421 137.432 137.522 137.336 137.649C136.846 138.203 136.41 138.804 136.035 139.443C134.111 142.718 131.38 145.474 129.116 148.522C129.043 148.594 129 148.691 128.995 148.793C128.99 148.895 129.023 148.995 129.089 149.074L129.548 149.979C129.806 150.485 130.22 151.075 130.765 150.975C131.015 150.903 131.238 150.76 131.409 150.563L133.476 148.578L135.644 146.499C136.913 145.278 138.205 144.034 139.034 142.476C139.681 143.602 140.829 144.339 141.617 145.371C141.916 145.762 142.159 146.194 142.427 146.609C142.857 147.275 143.344 147.9 143.83 148.522L146.318 151.707C146.632 152.161 147.021 152.557 147.469 152.879C148.057 153.252 148.775 153.352 149.468 153.413C150.402 153.499 151.34 153.533 152.277 153.516C152.992 153.504 153.737 153.457 154.369 153.138C155.001 152.818 155.539 152.161 155.505 151.446C155.466 151.071 155.344 150.71 155.147 150.389C154.269 148.754 153.107 147.387 151.438 146.599Z" fill="#2F2E41"/>
<path d="M153.807 131.312C154.271 131.312 154.646 130.933 154.646 130.465C154.646 129.998 154.271 129.619 153.807 129.619C153.344 129.619 152.968 129.998 152.968 130.465C152.968 130.933 153.344 131.312 153.807 131.312Z" fill="#E8E8F0"/>
<path d="M153.622 129.828C153.812 130.207 153.845 130.646 153.715 131.049C153.585 131.445 153.404 131.823 153.175 132.172C152.978 132.532 152.742 132.869 152.472 133.177C153.768 133.241 155.026 132.731 156.169 132.111C157.091 131.622 158.01 131 158.501 130.07C158.355 130.105 158.203 130.109 158.055 130.082C157.908 130.054 157.767 129.996 157.643 129.911C157.395 129.738 157.174 129.531 156.984 129.296L156.334 128.564C156.181 128.403 156.046 128.226 155.933 128.035C155.791 127.775 155.731 127.478 155.76 127.183C155.502 127.454 155.213 127.695 154.899 127.9C154.435 128.205 153.926 128.425 153.457 128.725C153.292 128.833 152.924 129.006 153.019 129.213C153.114 129.421 153.491 129.594 153.622 129.828Z" fill="#FBBEBE"/>
<path opacity="0.1" d="M153.622 129.828C153.812 130.207 153.845 130.646 153.715 131.049C153.585 131.445 153.404 131.823 153.175 132.172C152.978 132.532 152.742 132.869 152.472 133.177C153.768 133.241 155.026 132.731 156.169 132.111C157.091 131.622 158.01 131 158.501 130.07C158.355 130.105 158.203 130.109 158.055 130.082C157.908 130.054 157.767 129.996 157.643 129.911C157.395 129.738 157.174 129.531 156.984 129.296L156.334 128.564C156.181 128.403 156.046 128.226 155.933 128.035C155.791 127.775 155.731 127.478 155.76 127.183C155.502 127.454 155.213 127.695 154.899 127.9C154.435 128.205 153.926 128.425 153.457 128.725C153.292 128.833 152.924 129.006 153.019 129.213C153.114 129.421 153.491 129.594 153.622 129.828Z" fill="black"/>
<path d="M153.639 129.955C153.508 130.141 153.438 130.363 153.438 130.591C153.438 130.819 153.508 131.041 153.639 131.227C153.676 131.273 153.814 131.564 153.883 131.566C153.94 131.561 153.993 131.534 154.031 131.491C154.325 131.183 154.599 130.856 154.853 130.514C155.109 130.168 155.48 129.924 155.899 129.826C156.407 129.745 156.896 130.016 157.341 130.275C157.532 130.37 157.699 130.509 157.828 130.68C157.921 130.85 157.977 131.038 157.991 131.232C158.118 132.396 158.167 133.567 158.137 134.737C158.16 135.581 158.105 136.425 157.971 137.258C157.888 137.688 157.764 138.108 157.706 138.542C157.663 138.924 157.646 139.309 157.655 139.694V141.305C157.644 141.6 157.665 141.895 157.718 142.186C157.819 142.533 157.936 142.874 158.071 143.209C158.189 143.607 158.271 144.016 158.314 144.429L158.533 146.096C158.603 146.623 158.655 147.197 158.336 147.619C158.195 147.812 158.005 147.963 157.85 148.154C157.302 148.852 157.485 149.865 157.241 150.731C157.062 151.367 156.693 151.933 156.186 152.354C155.799 152.684 155.298 152.945 154.797 152.842C154.123 152.715 153.717 152.01 153.532 151.344C153.348 150.677 153.289 149.95 152.883 149.391C152.557 148.93 152.054 148.642 151.599 148.312C151.144 147.983 150.696 147.561 150.597 147.004C150.553 146.76 150.58 146.516 150.555 146.272C150.519 145.961 150.4 145.665 150.211 145.416C150.022 145.167 149.77 144.974 149.48 144.856C149.135 144.722 148.707 144.673 148.507 144.368C149.003 144.056 149.364 143.569 149.519 143.004C149.67 142.446 149.752 141.873 149.762 141.295L149.879 139.357C149.93 138.491 149.955 137.632 150.334 136.853C150.504 136.506 150.716 136.179 150.891 135.835C151.126 135.352 151.326 134.853 151.489 134.341C151.764 133.548 152.041 132.752 152.287 131.949C152.385 131.561 152.532 131.186 152.725 130.834C152.951 130.468 153.25 130.029 153.639 129.955Z" fill="#E8E8F0"/>
<path d="M149.351 142.547L149.862 142.564L149.972 141.791C149.986 141.636 150.022 141.484 150.079 141.339C150.163 141.186 150.262 141.042 150.373 140.907C150.876 140.194 150.84 139.247 150.964 138.381C151.129 137.226 151.611 136.143 152.088 135.079L153.08 132.86C153.168 132.677 153.239 132.487 153.292 132.291C153.335 132.075 153.355 131.855 153.352 131.635C153.352 131.293 153.464 130.046 153.472 129.702C153.472 129.575 153.194 129.645 153.136 129.533C153.012 129.289 152.842 129.953 152.608 130.099C152.388 130.268 152.228 130.503 152.151 130.771C151.937 131.33 151.806 131.918 151.606 132.479C151.431 133.054 151.112 133.574 150.679 133.99C150.478 134.171 150.242 134.312 150.049 134.503C149.432 135.115 149.373 136.082 149.351 136.943C149.337 137.478 149.237 142.547 149.351 142.547Z" fill="#2F2E41"/>
<path d="M156.709 129.03C156.222 129.226 155.94 129.763 155.802 130.285C155.663 130.807 155.605 131.359 155.337 131.823C154.714 132.911 153.126 133.228 152.686 134.405C152.574 134.802 152.514 135.212 152.508 135.625C152.431 136.467 152.153 137.282 152.071 138.125C152.028 138.78 152.043 139.437 152.117 140.089L152.674 146.736C152.782 147.714 152.725 148.704 152.506 149.664C153.077 149.747 153.66 149.651 154.174 149.389C154.697 149.145 155.174 148.822 155.675 148.544C156.538 148.056 157.492 147.726 158.246 147.08C158.383 146.973 158.5 146.843 158.594 146.696C158.715 146.417 158.797 146.122 158.837 145.82C158.901 145.585 158.982 145.355 159.08 145.132C159.359 144.462 159.603 143.778 159.81 143.082C159.951 142.62 160.063 142.15 160.143 141.673C160.204 141.295 160.235 140.912 160.269 140.531C160.308 139.932 160.427 139.341 160.622 138.774C161.105 137.42 161.378 136 161.432 134.563C161.449 134.356 161.435 134.147 161.391 133.944C161.307 133.697 161.194 133.461 161.055 133.241C160.824 132.804 160.685 132.323 160.466 131.881C159.98 130.88 159.107 130.121 158.195 129.484C157.728 129.174 157.215 128.837 156.709 129.03Z" fill="#2F2E41"/>
<path d="M145.098 139.875C144.703 139.667 144.345 139.395 144.04 139.069C143.901 138.906 143.796 138.723 143.646 138.561C143.288 138.179 142.825 137.914 142.315 137.8C141.809 137.688 141.291 137.638 140.773 137.651C140.427 137.627 140.08 137.669 139.749 137.776C139.583 137.83 139.434 137.926 139.315 138.054C139.196 138.182 139.111 138.338 139.068 138.508C138.993 138.923 139.263 139.325 139.586 139.589C139.887 139.836 140.241 140.009 140.62 140.094C140.929 140.148 141.241 140.185 141.554 140.204C143.393 140.397 145.034 141.4 146.644 142.315C148.06 143.118 149.503 143.869 150.974 144.568C151.032 144.127 151.056 143.681 151.047 143.236C151.047 142.904 151.022 142.396 150.709 142.201C150.344 141.971 149.736 141.92 149.332 141.783C148.384 141.473 147.459 141.098 146.562 140.661C146.053 140.414 145.567 140.153 145.098 139.875Z" fill="#FBBEBE"/>
<path d="M153.136 129.45C154.945 129.45 156.412 127.969 156.412 126.143C156.412 124.316 154.945 122.836 153.136 122.836C151.327 122.836 149.86 124.316 149.86 126.143C149.86 127.969 151.327 129.45 153.136 129.45Z" fill="#FBBEBE"/>
<path d="M157.645 132.779C157.384 133.147 157.171 133.546 157.01 133.968C156.604 134.805 155.969 135.523 155.653 136.409C155.318 137.329 155.33 138.425 154.68 139.15C154.55 139.26 154.452 139.403 154.396 139.565C154.392 139.665 154.38 139.766 154.362 139.865C154.269 140.128 153.839 140.141 153.759 140.409C153.737 140.487 153.759 140.573 153.72 140.653C153.654 140.827 153.428 140.851 153.275 140.956C152.956 141.173 153.031 141.676 152.788 141.988C152.689 142.104 152.562 142.192 152.418 142.243C152.275 142.293 152.12 142.305 151.971 142.276C151.673 142.213 151.386 142.106 151.12 141.957C151.026 141.904 150.923 141.871 150.816 141.861C150.689 141.864 150.566 141.906 150.463 141.981C149.857 142.367 149.573 143.133 149.578 143.855C149.62 144.578 149.791 145.287 150.081 145.95C150.115 146.064 150.173 146.17 150.249 146.262C150.448 146.474 150.799 146.44 151.066 146.321C151.317 146.172 151.584 146.052 151.862 145.964C152.367 145.872 152.864 146.223 153.377 146.194C153.752 146.136 154.106 145.98 154.401 145.74C154.922 145.422 155.388 145.023 155.782 144.556C156.006 144.261 156.171 143.924 156.368 143.609C156.62 143.222 156.896 142.852 157.195 142.501L159.085 140.18C159.275 139.96 159.445 139.724 159.593 139.474C159.764 139.137 159.897 138.782 159.99 138.415C160.192 137.803 160.324 137.17 160.381 136.528C160.391 135.997 160.345 135.466 160.243 134.944C160.179 134.426 160.043 133.918 159.837 133.438C159.416 132.584 158.416 131.876 157.645 132.779Z" fill="#2F2E41"/>
<path d="M164.227 128.471C164.229 127.885 164.093 127.306 163.829 126.783C163.565 126.26 163.181 125.807 162.709 125.462C162.695 124.421 162.312 123.419 161.63 122.634C160.949 121.85 160.011 121.334 158.985 121.178C158.787 120.192 158.248 119.308 157.464 118.682C156.68 118.055 155.7 117.727 154.698 117.754C153.696 117.781 152.736 118.162 151.986 118.83C151.237 119.498 150.747 120.41 150.601 121.405C149.239 121.098 147.994 121.498 147.768 122.34C147.525 123.221 148.498 124.251 149.937 124.642C150.389 124.77 150.859 124.817 151.326 124.781C151.661 125.274 152.095 125.692 152.6 126.007C153.105 126.323 153.67 126.528 154.26 126.612C154.433 127.408 154.824 128.14 155.389 128.725C155.954 129.31 156.67 129.725 157.458 129.924C157.676 130.452 158.014 130.922 158.445 131.295C158.445 131.398 158.428 131.503 158.428 131.61C158.413 131.985 158.473 132.36 158.605 132.711C158.737 133.062 158.939 133.383 159.198 133.654C159.457 133.925 159.768 134.141 160.112 134.288C160.456 134.436 160.827 134.512 161.201 134.512C161.575 134.512 161.946 134.436 162.29 134.288C162.634 134.141 162.945 133.925 163.204 133.654C163.463 133.383 163.665 133.062 163.797 132.711C163.929 132.36 163.989 131.985 163.974 131.61C163.974 131.189 163.883 130.773 163.709 130.39C164.05 129.809 164.229 129.146 164.227 128.471V128.471Z" fill="#F86D70"/>
<path opacity="0.1" d="M148.692 122.509C148.918 121.667 150.152 121.266 151.526 121.574C151.686 120.563 152.196 119.641 152.967 118.971C153.739 118.301 154.721 117.926 155.741 117.913C155.836 117.913 155.93 117.913 156.023 117.913C155.629 117.792 155.219 117.731 154.807 117.732C153.787 117.746 152.805 118.121 152.034 118.791C151.262 119.461 150.752 120.382 150.592 121.393C149.23 121.086 147.985 121.486 147.758 122.328C147.515 123.209 148.488 124.239 149.928 124.63C150.196 124.704 150.47 124.752 150.747 124.771C149.381 124.371 148.461 123.37 148.692 122.509Z" fill="black"/>
<path opacity="0.1" d="M159.353 131.781C159.353 131.674 159.353 131.569 159.37 131.464C158.938 131.091 158.6 130.622 158.382 130.095C157.595 129.894 156.879 129.478 156.314 128.892C155.75 128.307 155.358 127.576 155.184 126.78C154.595 126.697 154.029 126.492 153.524 126.176C153.019 125.861 152.585 125.443 152.251 124.949C151.978 124.971 151.704 124.964 151.433 124.927C151.77 125.382 152.193 125.765 152.678 126.054C153.163 126.344 153.701 126.533 154.26 126.612C154.433 127.408 154.824 128.14 155.389 128.725C155.954 129.31 156.67 129.725 157.458 129.924C157.676 130.452 158.014 130.922 158.445 131.295C158.445 131.398 158.428 131.503 158.428 131.61C158.416 132.358 158.699 133.081 159.216 133.621C159.732 134.16 160.441 134.473 161.186 134.49C160.642 134.28 160.175 133.907 159.848 133.423C159.52 132.939 159.347 132.366 159.353 131.781Z" fill="black"/>
<path d="M154.635 127.355C154.857 127.185 154.855 126.807 154.63 126.509C154.405 126.212 154.042 126.108 153.82 126.278C153.597 126.447 153.599 126.826 153.824 127.123C154.049 127.421 154.412 127.524 154.635 127.355Z" fill="#FBBEBE"/>
<path d="M76.3223 143.812L79.562 141.9C79.1241 141.149 78.5643 140.477 77.9057 139.911L71.796 141.817L76.5825 138.993C75.3973 138.342 74.0634 138.012 72.7122 138.035C71.3611 138.058 70.0391 138.433 68.8766 139.125C67.714 139.816 66.7508 140.799 66.0818 141.978C65.4128 143.156 65.0611 144.489 65.0612 145.845C65.0612 150.158 68.5466 150.306 72.8443 150.306C77.142 150.306 80.6273 150.158 80.6273 145.845C80.6298 144.752 80.4019 143.67 79.9584 142.672L76.3223 143.812Z" fill="#FCA933"/>
<path opacity="0.1" d="M77.1468 148.005C76.8018 147.658 76.4163 147.354 75.9988 147.099C75.4126 146.706 74.8022 146.306 74.109 146.174C73.5009 146.057 72.8734 146.157 72.2532 146.12C71.1763 146.055 70.1626 145.588 69.41 144.812C68.9673 144.353 68.6195 143.79 68.0869 143.438C67.4915 143.083 66.7891 142.954 66.1071 143.074C65.9094 143.102 65.7136 143.142 65.5209 143.194C65.216 144.044 65.0605 144.941 65.0612 145.845C65.0612 150.157 68.5466 150.306 72.8442 150.306C74.9311 150.306 76.8233 150.272 78.2218 149.743L77.9786 149.306C77.7577 148.838 77.4782 148.401 77.1468 148.005Z" fill="black"/>
</g>
<defs>
<linearGradient id="paint0_linear_32_529" x1="138.027" y1="156.12" x2="138.027" y2="117.156" gradientUnits="userSpaceOnUse">
<stop stop-color="#808080" stop-opacity="0.25"/>
<stop offset="0.54" stop-color="#808080" stop-opacity="0.12"/>
<stop offset="1" stop-color="#808080" stop-opacity="0.1"/>
</linearGradient>
<clipPath id="clip0_32_529">
<rect width="278" height="162" fill="white"/>
</clipPath>
</defs>
</svg>
