<svg width="284" height="155" viewBox="0 0 284 155" fill="none" xmlns="http://www.w3.org/2000/svg">
<g clip-path="url(#clip0_32_412)">
<path d="M38.1904 80.7886H29.1015C28.7819 80.7886 28.4754 80.9153 28.2494 81.1409C28.0234 81.3665 27.8965 81.6725 27.8965 81.9915V85.974C27.8965 86.293 28.0234 86.599 28.2494 86.8246C28.4754 87.0502 28.7819 87.1769 29.1015 87.1769H30.6077V93.144H36.6842V87.1769H38.1904C38.51 87.1769 38.8165 87.0502 39.0425 86.8246C39.2684 86.599 39.3954 86.293 39.3954 85.974V81.9915C39.3954 81.6725 39.2684 81.3665 39.0425 81.1409C38.8165 80.9153 38.51 80.7886 38.1904 80.7886Z" fill="#F5CE00"/>
<path d="M47.2938 117.236C41.7275 109.105 38.8819 99.4243 39.1647 89.58C39.1697 89.3529 39.0959 89.131 38.9557 88.952C38.8154 88.7731 38.6175 88.6481 38.3954 88.5983V86.8775H28.7963V88.5744H28.6641C28.5287 88.5745 28.3948 88.6026 28.2707 88.6567C28.1467 88.7109 28.0352 88.79 27.9431 88.8891C27.8511 88.9882 27.7805 89.1052 27.7357 89.2327C27.691 89.3603 27.6731 89.4957 27.6831 89.6305C28.4393 100.154 25.8857 109.591 20.0223 117.942C19.6849 118.422 19.5125 118.998 19.531 119.584L20.5806 151.995C20.6059 152.718 20.9098 153.404 21.429 153.908C21.9482 154.413 22.6426 154.698 23.3672 154.703H45.0789C45.8118 154.697 46.5134 154.406 47.0342 153.891C47.555 153.377 47.8539 152.679 47.8672 151.948L48.2717 120.479C48.2836 119.324 47.9425 118.193 47.2938 117.236V117.236Z" fill="#3F3D56"/>
<path opacity="0.2" d="M36.2957 82.0862C36.2957 82.7745 36.0218 83.4347 35.5343 83.9214C35.0467 84.4081 34.3854 84.6815 33.696 84.6815C33.0065 84.6815 32.3452 84.4081 31.8576 83.9214C31.3701 83.4347 31.0962 82.7745 31.0962 82.0862" fill="black"/>
<path d="M43.8569 128.002H41.2278C40.9768 126.376 40.1512 124.894 38.9003 123.823C37.6494 122.752 36.0558 122.163 34.4078 122.163C32.7598 122.163 31.1663 122.752 29.9154 123.823C28.6645 124.894 27.8389 126.376 27.5879 128.002H24.9586C24.6788 128.002 24.4024 128.063 24.1482 128.179C23.894 128.296 23.6681 128.466 23.486 128.678C23.3038 128.89 23.1697 129.139 23.0929 129.407C23.0161 129.676 22.9983 129.958 23.0409 130.234L25.8967 148.764H42.2951L45.7639 130.296C45.8165 130.016 45.8066 129.728 45.7351 129.453C45.6635 129.178 45.532 128.921 45.35 128.702C45.1679 128.483 44.9397 128.307 44.6817 128.186C44.4236 128.065 44.142 128.002 43.8569 128.002Z" fill="#F5CE00"/>
<path d="M264.796 98.217L264.165 123.38L263.384 154.582H236.799L235.884 118.025L235.387 98.217H264.796Z" fill="#E6E6E6"/>
<path d="M251.856 84.8301H248.092V134.62H251.856V84.8301Z" fill="#F5CE00"/>
<path d="M262.913 117.177L262.201 152.941H237.97L237.135 111.039C239.318 110.427 241.605 110.271 243.851 110.579C246.097 110.887 248.256 111.654 250.193 112.832C254.241 115.223 258.79 116.509 262.913 117.177Z" fill="#3F3D56"/>
<path d="M243.968 121.203H240.514V124.651H243.968V121.203Z" fill="#E6E6E6"/>
<path d="M246.321 114.157H242.867V117.605H246.321V114.157Z" fill="#E6E6E6"/>
<path d="M253.738 119.035L250.964 116.981L248.906 119.75L251.68 121.804L253.738 119.035Z" fill="#E6E6E6"/>
<path d="M259.979 125.144L257.204 123.09L255.147 125.86L257.921 127.914L259.979 125.144Z" fill="#E6E6E6"/>
<path d="M249.392 128.667L246.617 126.613L244.56 129.383L247.334 131.437L249.392 128.667Z" fill="#E6E6E6"/>
<path d="M257.502 112.778C257.892 112.778 258.208 112.463 258.208 112.073C258.208 111.684 257.892 111.369 257.502 111.369C257.112 111.369 256.796 111.684 256.796 112.073C256.796 112.463 257.112 112.778 257.502 112.778Z" fill="#3F3D56"/>
<path d="M243.151 108.081C243.541 108.081 243.857 107.765 243.857 107.376C243.857 106.987 243.541 106.672 243.151 106.672C242.761 106.672 242.445 106.987 242.445 107.376C242.445 107.765 242.761 108.081 243.151 108.081Z" fill="#3F3D56"/>
<path d="M255.15 103.149C255.539 103.149 255.855 102.834 255.855 102.444C255.855 102.055 255.539 101.74 255.15 101.74C254.76 101.74 254.444 102.055 254.444 102.444C254.444 102.834 254.76 103.149 255.15 103.149Z" fill="#3F3D56"/>
<g filter="url(#filter0_d_32_412)">
<path d="M142.162 154.368C184.864 154.368 219.48 119.811 219.48 77.1838C219.48 34.5564 184.864 0 142.162 0C99.4611 0 64.8447 34.5564 64.8447 77.1838C64.8447 119.811 99.4611 154.368 142.162 154.368Z" fill="white"/>
</g>
<path opacity="0.2" d="M142.162 133.52C129.106 133.52 116.454 129.001 106.361 120.733C96.2685 112.464 89.3601 100.958 86.813 88.1745C84.2659 75.3913 86.2378 62.1218 92.3925 50.6272C98.5473 39.1325 108.504 30.1238 120.567 25.1361C132.629 20.1483 146.051 19.4901 158.545 23.2737C171.039 27.0572 181.832 35.0483 189.086 45.8854C196.34 56.7226 199.605 69.7352 198.325 82.7061C197.045 95.677 191.3 107.804 182.068 117.02C176.839 122.268 170.621 126.428 163.771 129.26C156.921 132.093 149.577 133.541 142.162 133.52V133.52ZM142.162 24.3216C112.964 24.3216 89.2085 48.0354 89.2085 77.1838C89.2085 106.332 112.964 130.046 142.162 130.046C171.361 130.046 195.116 106.332 195.116 77.1838C195.116 48.0354 171.361 24.3216 142.162 24.3216Z" fill="black"/>
<path d="M142.162 131.783C172.369 131.783 196.857 107.338 196.857 77.1838C196.857 47.0293 172.369 22.5843 142.162 22.5843C111.956 22.5843 87.4683 47.0293 87.4683 77.1838C87.4683 107.338 111.956 131.783 142.162 131.783Z" fill="#3F3D56"/>
<path d="M101.488 55.3517C101.073 54.5407 100.822 53.6561 100.75 52.7483C100.678 51.8406 100.786 50.9276 101.067 50.0614C101.349 49.1953 101.799 48.3931 102.391 47.7007C102.984 47.0083 103.707 46.4392 104.52 46.0259C105.333 45.6127 106.219 45.3635 107.129 45.2925C108.038 45.2215 108.952 45.3301 109.82 45.6121C110.687 45.8942 111.49 46.3441 112.183 46.9362C112.876 47.5283 113.446 48.2509 113.859 49.0628L129.311 79.3542C129.726 80.1652 129.976 81.0498 130.049 81.9576C130.121 82.8653 130.013 83.7783 129.731 84.6444C129.45 85.5105 129 86.3127 128.407 87.0052C127.815 87.6976 127.092 88.2667 126.279 88.6799C125.466 89.0931 124.58 89.3424 123.67 89.4134C122.761 89.4844 121.846 89.3758 120.979 89.0937C120.112 88.8117 119.309 88.3618 118.616 87.7697C117.923 87.1776 117.353 86.455 116.94 85.6431L101.488 55.3517Z" fill="#FF6584"/>
<path opacity="0.2" d="M103.211 58.7304L102.498 57.3323C106.057 54.5715 110.237 52.5411 114.869 51.0433L115.582 52.4414C110.569 53.4836 106.304 55.4122 103.211 58.7304Z" fill="black"/>
<path opacity="0.2" d="M106.539 65.2547L105.826 63.8566C109.385 61.0958 113.565 59.0654 118.197 57.5677L118.91 58.9657C113.897 60.0079 109.632 61.9366 106.539 65.2547Z" fill="black"/>
<path opacity="0.2" d="M109.868 71.779L109.154 70.3809C112.714 67.6201 116.893 65.5897 121.525 64.0919L122.239 65.49C117.225 66.5322 112.96 68.4609 109.868 71.779Z" fill="black"/>
<path opacity="0.2" d="M113.196 78.3033L112.483 76.9052C116.042 74.1444 120.222 72.114 124.854 70.6162L125.567 72.0143C120.554 73.0565 116.288 74.9851 113.196 78.3033Z" fill="black"/>
<path opacity="0.2" d="M116.524 84.8276L115.811 83.4295C119.37 80.6687 123.55 78.6383 128.182 77.1406L128.895 78.5386C123.882 79.5808 119.617 81.5095 116.524 84.8276Z" fill="black"/>
<path d="M89.8946 66.6917C89.4799 65.8807 89.2294 64.9961 89.1574 64.0884C89.0854 63.1807 89.1933 62.2678 89.4749 61.4017C89.7566 60.5357 90.2064 59.7336 90.7988 59.0412C91.3911 58.3488 92.1144 57.7798 92.9272 57.3666C93.74 56.9534 94.6263 56.7042 95.5357 56.6331C96.445 56.5621 97.3594 56.6707 98.2267 56.9527C99.094 57.2346 99.8971 57.6845 100.59 58.2765C101.283 58.8684 101.852 59.591 102.266 60.4028L117.718 90.6942C118.551 92.3316 118.699 94.2322 118.129 95.9784C117.56 97.7246 116.319 99.1735 114.679 100.007C113.04 100.84 111.136 100.99 109.386 100.423C107.636 99.856 106.184 98.6188 105.347 96.9831L89.8946 66.6917Z" fill="#FF6584"/>
<path opacity="0.2" d="M91.6182 70.0704L90.905 68.6723C94.4644 65.9115 98.644 63.8811 103.276 62.3834L103.989 63.7814C98.9759 64.8236 94.7108 66.7522 91.6182 70.0704Z" fill="black"/>
<path opacity="0.2" d="M94.9465 76.5947L94.2333 75.1966C97.7926 72.4358 101.972 70.4054 106.604 68.9077L107.317 70.3057C102.304 71.3479 98.039 73.2766 94.9465 76.5947Z" fill="black"/>
<path opacity="0.2" d="M98.2747 83.119L97.5615 81.7209C101.121 78.9601 105.3 76.9297 109.933 75.4319L110.646 76.83C105.632 77.8722 101.367 79.8008 98.2747 83.119Z" fill="black"/>
<path opacity="0.2" d="M101.603 89.6433L100.89 88.2452C104.449 85.4844 108.629 83.454 113.261 81.9562L113.974 83.3543C108.961 84.3965 104.695 86.3251 101.603 89.6433Z" fill="black"/>
<path opacity="0.2" d="M104.931 96.1676L104.218 94.7695C107.777 92.0087 111.957 89.9783 116.589 88.4806L117.302 89.8786C112.289 90.9208 108.024 92.8495 104.931 96.1676Z" fill="black"/>
<path d="M178.708 78.921L178.757 78.9211C180.421 78.935 182.051 78.4479 183.434 77.5232C184.817 76.5985 185.889 75.2792 186.509 73.7374C187.785 70.5171 188.428 67.0816 188.403 63.6186C188.317 48.9609 176.371 36.9359 161.689 36.7332C155.436 36.6458 149.346 38.7196 144.45 42.6029C139.553 46.4863 136.153 51.9403 134.825 58.0405C133.497 64.1406 134.323 70.5115 137.163 76.0732C140.003 81.6349 144.682 86.0452 150.407 88.5564C151.92 89.2251 153.6 89.4218 155.227 89.1207C156.854 88.8195 158.351 88.0346 159.524 86.8689C162.038 84.3458 165.027 82.3446 168.32 80.9805C171.613 79.6164 175.143 78.9165 178.708 78.921Z" fill="#E6E6E6"/>
<path d="M164.786 70.7311C169.729 70.7311 173.736 66.731 173.736 61.7966C173.736 56.8623 169.729 52.8622 164.786 52.8622C159.843 52.8622 155.836 56.8623 155.836 61.7966C155.836 66.731 159.843 70.7311 164.786 70.7311Z" fill="#F9A825"/>
<path d="M145.334 60.792C145.917 60.792 146.389 60.3208 146.389 59.7395C146.389 59.1582 145.917 58.687 145.334 58.687C144.752 58.687 144.28 59.1582 144.28 59.7395C144.28 60.3208 144.752 60.792 145.334 60.792Z" fill="#3F3D56"/>
<path d="M110.529 61.7847C111.111 61.7847 111.583 61.3135 111.583 60.7322C111.583 60.1509 111.111 59.6797 110.529 59.6797C109.947 59.6797 109.475 60.1509 109.475 60.7322C109.475 61.3135 109.947 61.7847 110.529 61.7847Z" fill="#3F3D56"/>
<path d="M150.954 49.884C151.536 49.884 152.008 49.4128 152.008 48.8315C152.008 48.2502 151.536 47.779 150.954 47.779C150.371 47.779 149.899 48.2502 149.899 48.8315C149.899 49.4128 150.371 49.884 150.954 49.884Z" fill="#3F3D56"/>
<path d="M150.924 80.2217C151.506 80.2217 151.978 79.7505 151.978 79.1692C151.978 78.5879 151.506 78.1167 150.924 78.1167C150.341 78.1167 149.869 78.5879 149.869 79.1692C149.869 79.7505 150.341 80.2217 150.924 80.2217Z" fill="#3F3D56"/>
<path d="M171.807 47.7102C172.389 47.7102 172.861 47.239 172.861 46.6577C172.861 46.0764 172.389 45.6052 171.807 45.6052C171.225 45.6052 170.753 46.0764 170.753 46.6577C170.753 47.239 171.225 47.7102 171.807 47.7102Z" fill="#3F3D56"/>
<path d="M103.688 76.499C104.27 76.499 104.742 76.0278 104.742 75.4465C104.742 74.8652 104.27 74.394 103.688 74.394C103.106 74.394 102.634 74.8652 102.634 75.4465C102.634 76.0278 103.106 76.499 103.688 76.499Z" fill="#3F3D56"/>
<path d="M111.395 91.638C111.977 91.638 112.449 91.1667 112.449 90.5854C112.449 90.0042 111.977 89.5329 111.395 89.5329C110.813 89.5329 110.34 90.0042 110.34 90.5854C110.34 91.1667 110.813 91.638 111.395 91.638Z" fill="#3F3D56"/>
<path d="M159.814 96.5417C162.011 96.5417 163.792 94.7639 163.792 92.5709C163.792 90.3778 162.011 88.6 159.814 88.6C157.617 88.6 155.836 90.3778 155.836 92.5709C155.836 94.7639 157.617 96.5417 159.814 96.5417Z" fill="#FF6584"/>
<path opacity="0.2" d="M162.797 92.8191C162.797 93.6089 162.483 94.3664 161.923 94.9249C161.364 95.4834 160.605 95.7972 159.814 95.7972C159.023 95.7972 158.264 95.4834 157.704 94.9249C157.145 94.3664 156.83 93.6089 156.83 92.8191" fill="black"/>
<path opacity="0.2" d="M156.83 92.3227C156.83 91.5328 157.145 90.7753 157.704 90.2168C158.264 89.6583 159.023 89.3445 159.814 89.3445C160.605 89.3445 161.364 89.6583 161.923 90.2168C162.483 90.7753 162.797 91.5328 162.797 92.3227" fill="black"/>
<path d="M158.322 91.5781C158.459 91.5781 158.571 91.4115 158.571 91.2059C158.571 91.0003 158.459 90.8336 158.322 90.8336C158.185 90.8336 158.073 91.0003 158.073 91.2059C158.073 91.4115 158.185 91.5781 158.322 91.5781Z" fill="#FF6584"/>
<path d="M159.814 91.0818C159.951 91.0818 160.062 90.9152 160.062 90.7096C160.062 90.504 159.951 90.3373 159.814 90.3373C159.676 90.3373 159.565 90.504 159.565 90.7096C159.565 90.9152 159.676 91.0818 159.814 91.0818Z" fill="#FF6584"/>
<path d="M159.814 94.3081C159.951 94.3081 160.062 94.1415 160.062 93.9359C160.062 93.7303 159.951 93.5636 159.814 93.5636C159.676 93.5636 159.565 93.7303 159.565 93.9359C159.565 94.1415 159.676 94.3081 159.814 94.3081Z" fill="#FF6584"/>
<path d="M161.305 92.3227C161.443 92.3227 161.554 92.156 161.554 91.9504C161.554 91.7448 161.443 91.5782 161.305 91.5782C161.168 91.5782 161.057 91.7448 161.057 91.9504C161.057 92.156 161.168 92.3227 161.305 92.3227Z" fill="#FF6584"/>
<path d="M161.057 95.0527C161.194 95.0527 161.305 94.886 161.305 94.6804C161.305 94.4748 161.194 94.3081 161.057 94.3081C160.92 94.3081 160.808 94.4748 160.808 94.6804C160.808 94.886 160.92 95.0527 161.057 95.0527Z" fill="#FF6584"/>
<path d="M158.074 93.8118C158.211 93.8118 158.322 93.6451 158.322 93.4395C158.322 93.2339 158.211 93.0673 158.074 93.0673C157.936 93.0673 157.825 93.2339 157.825 93.4395C157.825 93.6451 157.936 93.8118 158.074 93.8118Z" fill="#FF6584"/>
<path d="M167.769 85.8701C169.966 85.8701 171.747 84.0922 171.747 81.8992C171.747 79.7061 169.966 77.9283 167.769 77.9283C165.573 77.9283 163.792 79.7061 163.792 81.8992C163.792 84.0922 165.573 85.8701 167.769 85.8701Z" fill="#FF6584"/>
<path opacity="0.2" d="M170.753 82.1474C170.753 82.9372 170.438 83.6947 169.879 84.2532C169.319 84.8117 168.561 85.1255 167.769 85.1255C166.978 85.1255 166.219 84.8117 165.66 84.2532C165.1 83.6947 164.786 82.9372 164.786 82.1474" fill="black"/>
<path opacity="0.2" d="M164.786 81.651C164.786 80.8611 165.1 80.1036 165.66 79.5451C166.219 78.9866 166.978 78.6729 167.769 78.6729C168.561 78.6729 169.319 78.9866 169.879 79.5451C170.438 80.1036 170.753 80.8611 170.753 81.651" fill="black"/>
<path d="M166.278 80.9065C166.415 80.9065 166.526 80.7398 166.526 80.5342C166.526 80.3286 166.415 80.1619 166.278 80.1619C166.14 80.1619 166.029 80.3286 166.029 80.5342C166.029 80.7398 166.14 80.9065 166.278 80.9065Z" fill="#FF6584"/>
<path d="M167.769 80.4101C167.907 80.4101 168.018 80.2434 168.018 80.0378C168.018 79.8322 167.907 79.6656 167.769 79.6656C167.632 79.6656 167.521 79.8322 167.521 80.0378C167.521 80.2434 167.632 80.4101 167.769 80.4101Z" fill="#FF6584"/>
<path d="M167.769 83.6364C167.907 83.6364 168.018 83.4698 168.018 83.2642C168.018 83.0586 167.907 82.8919 167.769 82.8919C167.632 82.8919 167.521 83.0586 167.521 83.2642C167.521 83.4698 167.632 83.6364 167.769 83.6364Z" fill="#FF6584"/>
<path d="M169.261 81.651C169.398 81.651 169.51 81.4843 169.51 81.2787C169.51 81.0731 169.398 80.9065 169.261 80.9065C169.124 80.9065 169.012 81.0731 169.012 81.2787C169.012 81.4843 169.124 81.651 169.261 81.651Z" fill="#FF6584"/>
<path d="M169.012 84.381C169.15 84.381 169.261 84.2143 169.261 84.0087C169.261 83.8031 169.15 83.6364 169.012 83.6364C168.875 83.6364 168.764 83.8031 168.764 84.0087C168.764 84.2143 168.875 84.381 169.012 84.381Z" fill="#FF6584"/>
<path d="M166.029 83.1401C166.166 83.1401 166.278 82.9734 166.278 82.7678C166.278 82.5622 166.166 82.3955 166.029 82.3955C165.892 82.3955 165.781 82.5622 165.781 82.7678C165.781 82.9734 165.892 83.1401 166.029 83.1401Z" fill="#FF6584"/>
<path d="M175.725 91.33C177.922 91.33 179.703 89.5522 179.703 87.3591C179.703 85.1661 177.922 83.3882 175.725 83.3882C173.528 83.3882 171.747 85.1661 171.747 87.3591C171.747 89.5522 173.528 91.33 175.725 91.33Z" fill="#F5CE00"/>
<path opacity="0.2" d="M178.708 87.6073C178.708 88.3972 178.394 89.1547 177.834 89.7132C177.275 90.2717 176.516 90.5855 175.725 90.5855C174.934 90.5855 174.175 90.2717 173.615 89.7132C173.056 89.1547 172.742 88.3972 172.742 87.6073" fill="black"/>
<path opacity="0.2" d="M172.742 87.1109C172.742 86.3211 173.056 85.5636 173.615 85.0051C174.175 84.4466 174.934 84.1328 175.725 84.1328C176.516 84.1328 177.275 84.4466 177.834 85.0051C178.394 85.5636 178.708 86.3211 178.708 87.1109" fill="black"/>
<path d="M174.233 86.3664C174.371 86.3664 174.482 86.1998 174.482 85.9942C174.482 85.7886 174.371 85.6219 174.233 85.6219C174.096 85.6219 173.985 85.7886 173.985 85.9942C173.985 86.1998 174.096 86.3664 174.233 86.3664Z" fill="#F5CE00"/>
<path d="M175.725 85.8701C175.862 85.8701 175.973 85.7034 175.973 85.4978C175.973 85.2922 175.862 85.1255 175.725 85.1255C175.588 85.1255 175.476 85.2922 175.476 85.4978C175.476 85.7034 175.588 85.8701 175.725 85.8701Z" fill="#F5CE00"/>
<path d="M175.725 89.0964C175.862 89.0964 175.973 88.9297 175.973 88.7241C175.973 88.5185 175.862 88.3518 175.725 88.3518C175.588 88.3518 175.476 88.5185 175.476 88.7241C175.476 88.9297 175.588 89.0964 175.725 89.0964Z" fill="#F5CE00"/>
<path d="M177.217 87.1109C177.354 87.1109 177.465 86.9443 177.465 86.7387C177.465 86.5331 177.354 86.3664 177.217 86.3664C177.079 86.3664 176.968 86.5331 176.968 86.7387C176.968 86.9443 177.079 87.1109 177.217 87.1109Z" fill="#F5CE00"/>
<path d="M176.968 89.8409C177.105 89.8409 177.216 89.6742 177.216 89.4686C177.216 89.263 177.105 89.0964 176.968 89.0964C176.831 89.0964 176.719 89.263 176.719 89.4686C176.719 89.6742 176.831 89.8409 176.968 89.8409Z" fill="#F5CE00"/>
<path d="M173.985 88.6C174.122 88.6 174.233 88.4333 174.233 88.2277C174.233 88.0221 174.122 87.8555 173.985 87.8555C173.847 87.8555 173.736 88.0221 173.736 88.2277C173.736 88.4333 173.847 88.6 173.985 88.6Z" fill="#F5CE00"/>
<path d="M155.836 91.8264C158.033 91.8264 159.814 90.0485 159.814 87.8555C159.814 85.6624 158.033 83.8846 155.836 83.8846C153.639 83.8846 151.858 85.6624 151.858 87.8555C151.858 90.0485 153.639 91.8264 155.836 91.8264Z" fill="#F5CE00"/>
<path opacity="0.2" d="M158.819 88.1037C158.819 88.8935 158.505 89.651 157.946 90.2096C157.386 90.7681 156.627 91.0818 155.836 91.0818C155.045 91.0818 154.286 90.7681 153.727 90.2096C153.167 89.651 152.853 88.8935 152.853 88.1037" fill="black"/>
<path opacity="0.2" d="M152.853 87.6073C152.853 86.8174 153.167 86.0599 153.727 85.5014C154.286 84.9429 155.045 84.6292 155.836 84.6292C156.627 84.6292 157.386 84.9429 157.946 85.5014C158.505 86.0599 158.819 86.8174 158.819 87.6073" fill="black"/>
<path d="M154.344 86.8628C154.482 86.8628 154.593 86.6961 154.593 86.4905C154.593 86.2849 154.482 86.1182 154.344 86.1182C154.207 86.1182 154.096 86.2849 154.096 86.4905C154.096 86.6961 154.207 86.8628 154.344 86.8628Z" fill="#F5CE00"/>
<path d="M155.836 86.3664C155.973 86.3664 156.085 86.1998 156.085 85.9942C156.085 85.7886 155.973 85.6219 155.836 85.6219C155.699 85.6219 155.587 85.7886 155.587 85.9942C155.587 86.1998 155.699 86.3664 155.836 86.3664Z" fill="#F5CE00"/>
<path d="M155.836 89.5927C155.973 89.5927 156.085 89.4261 156.085 89.2205C156.085 89.0149 155.973 88.8482 155.836 88.8482C155.699 88.8482 155.587 89.0149 155.587 89.2205C155.587 89.4261 155.699 89.5927 155.836 89.5927Z" fill="#F5CE00"/>
<path d="M157.328 87.6073C157.465 87.6073 157.576 87.4406 157.576 87.235C157.576 87.0294 157.465 86.8628 157.328 86.8628C157.19 86.8628 157.079 87.0294 157.079 87.235C157.079 87.4406 157.19 87.6073 157.328 87.6073Z" fill="#F5CE00"/>
<path d="M157.079 90.3373C157.216 90.3373 157.328 90.1706 157.328 89.965C157.328 89.7594 157.216 89.5927 157.079 89.5927C156.942 89.5927 156.831 89.7594 156.831 89.965C156.831 90.1706 156.942 90.3373 157.079 90.3373Z" fill="#F5CE00"/>
<path d="M154.096 89.0964C154.233 89.0964 154.344 88.9297 154.344 88.7241C154.344 88.5185 154.233 88.3518 154.096 88.3518C153.958 88.3518 153.847 88.5185 153.847 88.7241C153.847 88.9297 153.958 89.0964 154.096 89.0964Z" fill="#F5CE00"/>
<path d="M164.786 93.5636C166.983 93.5636 168.764 91.7858 168.764 89.5928C168.764 87.3997 166.983 85.6219 164.786 85.6219C162.589 85.6219 160.808 87.3997 160.808 89.5928C160.808 91.7858 162.589 93.5636 164.786 93.5636Z" fill="#F5CE00"/>
<path opacity="0.2" d="M167.769 89.8409C167.769 90.232 167.692 90.6193 167.542 90.9806C167.392 91.3419 167.173 91.6703 166.896 91.9468C166.619 92.2234 166.29 92.4427 165.928 92.5924C165.566 92.742 165.178 92.8191 164.786 92.8191C164.394 92.8191 164.006 92.742 163.644 92.5924C163.282 92.4427 162.954 92.2234 162.677 91.9468C162.399 91.6703 162.18 91.3419 162.03 90.9806C161.88 90.6193 161.803 90.232 161.803 89.8409" fill="black"/>
<path opacity="0.2" d="M161.803 89.3445C161.803 88.9534 161.88 88.5662 162.03 88.2049C162.18 87.8435 162.399 87.5152 162.677 87.2387C162.954 86.9621 163.282 86.7428 163.644 86.5931C164.006 86.4434 164.394 86.3664 164.786 86.3664C165.178 86.3664 165.566 86.4434 165.928 86.5931C166.29 86.7428 166.619 86.9621 166.896 87.2387C167.173 87.5152 167.392 87.8435 167.542 88.2049C167.692 88.5662 167.769 88.9534 167.769 89.3445" fill="black"/>
<path d="M163.294 88.6C163.432 88.6 163.543 88.4333 163.543 88.2277C163.543 88.0221 163.432 87.8555 163.294 87.8555C163.157 87.8555 163.046 88.0221 163.046 88.2277C163.046 88.4333 163.157 88.6 163.294 88.6Z" fill="#F5CE00"/>
<path d="M164.786 88.1037C164.923 88.1037 165.035 87.937 165.035 87.7314C165.035 87.5258 164.923 87.3591 164.786 87.3591C164.649 87.3591 164.537 87.5258 164.537 87.7314C164.537 87.937 164.649 88.1037 164.786 88.1037Z" fill="#F5CE00"/>
<path d="M164.786 91.33C164.923 91.33 165.035 91.1633 165.035 90.9577C165.035 90.7521 164.923 90.5854 164.786 90.5854C164.649 90.5854 164.537 90.7521 164.537 90.9577C164.537 91.1633 164.649 91.33 164.786 91.33Z" fill="#F5CE00"/>
<path d="M166.278 89.3446C166.415 89.3446 166.526 89.1779 166.526 88.9723C166.526 88.7667 166.415 88.6 166.278 88.6C166.14 88.6 166.029 88.7667 166.029 88.9723C166.029 89.1779 166.14 89.3446 166.278 89.3446Z" fill="#F5CE00"/>
<path d="M166.029 92.0745C166.166 92.0745 166.278 91.9079 166.278 91.7023C166.278 91.4967 166.166 91.33 166.029 91.33C165.892 91.33 165.781 91.4967 165.781 91.7023C165.781 91.9079 165.892 92.0745 166.029 92.0745Z" fill="#F5CE00"/>
<path d="M163.046 90.8337C163.183 90.8337 163.294 90.667 163.294 90.4614C163.294 90.2558 163.183 90.0891 163.046 90.0891C162.908 90.0891 162.797 90.2558 162.797 90.4614C162.797 90.667 162.908 90.8337 163.046 90.8337Z" fill="#F5CE00"/>
<path d="M171.001 97.7827C173.198 97.7827 174.979 96.0048 174.979 93.8118C174.979 91.6187 173.198 89.8409 171.001 89.8409C168.804 89.8409 167.023 91.6187 167.023 93.8118C167.023 96.0048 168.804 97.7827 171.001 97.7827Z" fill="#FF6584"/>
<path opacity="0.2" d="M173.985 94.06C173.985 94.8498 173.67 95.6073 173.111 96.1658C172.551 96.7243 171.792 97.0381 171.001 97.0381C170.21 97.0381 169.451 96.7243 168.892 96.1658C168.332 95.6073 168.018 94.8498 168.018 94.06" fill="black"/>
<path opacity="0.2" d="M168.018 93.5636C168.018 92.7737 168.332 92.0162 168.892 91.4577C169.451 90.8992 170.21 90.5854 171.001 90.5854C171.792 90.5854 172.551 90.8992 173.111 91.4577C173.67 92.0162 173.985 92.7737 173.985 93.5636" fill="black"/>
<path d="M169.51 92.8191C169.647 92.8191 169.758 92.6524 169.758 92.4468C169.758 92.2412 169.647 92.0745 169.51 92.0745C169.372 92.0745 169.261 92.2412 169.261 92.4468C169.261 92.6524 169.372 92.8191 169.51 92.8191Z" fill="#FF6584"/>
<path d="M171.001 92.3227C171.139 92.3227 171.25 92.156 171.25 91.9504C171.25 91.7448 171.139 91.5782 171.001 91.5782C170.864 91.5782 170.753 91.7448 170.753 91.9504C170.753 92.156 170.864 92.3227 171.001 92.3227Z" fill="#FF6584"/>
<path d="M171.001 95.549C171.139 95.549 171.25 95.3824 171.25 95.1768C171.25 94.9712 171.139 94.8045 171.001 94.8045C170.864 94.8045 170.753 94.9712 170.753 95.1768C170.753 95.3824 170.864 95.549 171.001 95.549Z" fill="#FF6584"/>
<path d="M172.493 93.5636C172.63 93.5636 172.741 93.3969 172.741 93.1913C172.741 92.9857 172.63 92.8191 172.493 92.8191C172.356 92.8191 172.244 92.9857 172.244 93.1913C172.244 93.3969 172.356 93.5636 172.493 93.5636Z" fill="#FF6584"/>
<path d="M172.244 96.2936C172.382 96.2936 172.493 96.1269 172.493 95.9213C172.493 95.7157 172.382 95.549 172.244 95.549C172.107 95.549 171.996 95.7157 171.996 95.9213C171.996 96.1269 172.107 96.2936 172.244 96.2936Z" fill="#FF6584"/>
<path d="M169.261 95.0527C169.398 95.0527 169.51 94.886 169.51 94.6804C169.51 94.4748 169.398 94.3081 169.261 94.3081C169.124 94.3081 169.012 94.4748 169.012 94.6804C169.012 94.886 169.124 95.0527 169.261 95.0527Z" fill="#FF6584"/>
<path d="M119.848 79.7254C120.43 79.7254 120.902 79.2541 120.902 78.6729C120.902 78.0916 120.43 77.6203 119.848 77.6203C119.265 77.6203 118.793 78.0916 118.793 78.6729C118.793 79.2541 119.265 79.7254 119.848 79.7254Z" fill="#3F3D56"/>
<path d="M148.507 116.877L123.185 109.867L124.155 106.27L149.477 113.28L148.507 116.877Z" fill="#F9A825"/>
<path d="M144.795 115.675C136.123 117.332 127.216 117.332 118.545 115.675V111.946C127.235 113.384 136.104 113.384 144.795 111.946V115.675Z" fill="#F9A825"/>
<path d="M147.493 104.489C138.822 106.146 129.914 106.146 121.243 104.489V100.761C129.934 102.199 138.802 102.199 147.493 100.761V104.489Z" fill="#F9A825"/>
<path d="M156.57 108.963C147.899 110.621 138.992 110.621 130.32 108.963V105.235C139.011 106.673 147.88 106.673 156.57 105.235V108.963Z" fill="#F9A825"/>
<path d="M158.778 113.189C150.107 114.846 141.199 114.846 132.528 113.189V109.461C141.219 110.898 150.087 110.898 158.778 109.461V113.189Z" fill="#F9A825"/>
<path d="M166.476 118.711L140.578 123.053L139.977 119.375L165.875 115.032L166.476 118.711Z" fill="#F9A825"/>
<path d="M162.608 119.189C155.428 124.355 147.335 128.123 138.755 130.294L137.219 126.906C145.724 124.529 153.781 120.777 161.071 115.801L162.608 119.189Z" fill="#F9A825"/>
<path d="M160.45 107.883C153.27 113.05 145.178 116.818 136.598 118.989L135.061 115.601C143.566 113.224 151.623 109.472 158.913 104.495L160.45 107.883Z" fill="#F9A825"/>
<path d="M170.542 108.109C163.362 113.275 155.269 117.043 146.69 119.214L145.153 115.826C153.658 113.449 161.715 109.697 169.005 104.721L170.542 108.109Z" fill="#F9A825"/>
<path d="M174.289 111.014C167.109 116.181 159.017 119.949 150.437 122.12L148.901 118.732C157.405 116.354 165.463 112.603 172.753 107.626L174.289 111.014Z" fill="#F9A825"/>
<path d="M142.908 103.739H141.665V104.98H142.908V103.739Z" fill="#00BF71"/>
<path d="M146.638 125.331H145.394V126.571H146.638V125.331Z" fill="#00BF71"/>
<path d="M126.749 103.739H125.506V104.98H126.749V103.739Z" fill="#00BF71"/>
<path d="M155.587 119.126H154.344V120.367H155.587V119.126Z" fill="#00BF71"/>
<path d="M156.333 111.929H155.09V113.17H156.333V111.929Z" fill="#00BF71"/>
<path d="M135.828 108.531L134.388 107.556L133.829 108.377L135.269 109.353L135.828 108.531Z" fill="#00BF71"/>
<path d="M150.496 111.261L149.056 110.286L148.497 111.107L149.937 112.083L150.496 111.261Z" fill="#00BF71"/>
<path d="M132.596 115.977L131.156 115.001L130.597 115.823L132.037 116.798L132.596 115.977Z" fill="#00BF71"/>
<path d="M141.713 115.905L142.69 114.467L141.867 113.91L140.89 115.347L141.713 115.905Z" fill="#00BF71"/>
<path d="M148.425 117.642L149.402 116.204L148.579 115.647L147.602 117.084L148.425 117.642Z" fill="#00BF71"/>
<path d="M166.327 111.685L167.304 110.248L166.481 109.69L165.504 111.128L166.327 111.685Z" fill="#00BF71"/>
<path d="M284 154.285H0V155H284V154.285Z" fill="#3F3D56"/>
</g>
<defs>
<filter id="filter0_d_32_412" x="59.8447" y="-4" width="170.635" height="170.368" filterUnits="userSpaceOnUse" color-interpolation-filters="sRGB">
<feFlood flood-opacity="0" result="BackgroundImageFix"/>
<feColorMatrix in="SourceAlpha" type="matrix" values="0 0 0 0 0 0 0 0 0 0 0 0 0 0 0 0 0 0 127 0" result="hardAlpha"/>
<feOffset dx="3" dy="4"/>
<feGaussianBlur stdDeviation="4"/>
<feComposite in2="hardAlpha" operator="out"/>
<feColorMatrix type="matrix" values="0 0 0 0 0 0 0 0 0 0 0 0 0 0 0 0 0 0 0.25 0"/>
<feBlend mode="normal" in2="BackgroundImageFix" result="effect1_dropShadow_32_412"/>
<feBlend mode="normal" in="SourceGraphic" in2="effect1_dropShadow_32_412" result="shape"/>
</filter>
<clipPath id="clip0_32_412">
<rect width="284" height="155" fill="white"/>
</clipPath>
</defs>
</svg>
