<svg width="200" height="200" viewBox="0 0 200 200" fill="none" xmlns="http://www.w3.org/2000/svg">
<path d="M31.25 0C29.175 0 27.125 0.2 25.1625 0.6L27.5875 12.85C28.794 12.6143 30.0207 12.4971 31.25 12.5H36.975V0H31.25ZM59.9 0H48.4375V12.5H59.9V0ZM82.8125 0H71.35V12.5H82.8125V0ZM105.725 0H94.275V12.5H105.725V0ZM128.65 0H117.188V12.5H128.65V0ZM151.562 0H140.1V12.5H151.562V0ZM168.75 0H163.025V12.5H168.75C170 12.5 171.238 12.625 172.413 12.8625L174.838 0.6C172.833 0.202198 170.794 0.00124313 168.75 0V0ZM194.738 13.875C192.453 10.4682 189.523 7.54216 186.112 5.2625L179.163 15.65C181.213 17.025 182.975 18.7875 184.35 20.8375L194.725 13.8875L194.738 13.875ZM13.875 5.2625C10.4682 7.54711 7.54216 10.4773 5.2625 13.8875L15.65 20.8375C17.025 18.7875 18.7875 17.025 20.8375 15.65L13.875 5.275V5.2625ZM200 31.25C200 29.175 199.8 27.125 199.4 25.1625L187.15 27.5875C187.375 28.7625 187.5 29.9875 187.5 31.25V36.975H200V31.25ZM0.6 25.1625C0.202198 27.1673 0.00124313 29.2061 0 31.25L0 36.975H12.5V31.25C12.5 30 12.625 28.7625 12.8625 27.5875L0.6 25.1625V25.1625ZM0 48.4375V59.9H12.5V48.4375H0ZM200 59.9V48.4375H187.5V59.9H200ZM0 71.35V82.8125H12.5V71.35H0ZM200 82.8125V71.35H187.5V82.8125H200ZM0 94.275V105.725H12.5V94.275H0ZM187.5 105.725H200V94.275H187.5V105.725ZM0 117.188V128.65H12.5V117.188H0ZM200 128.65V117.188H187.5V128.65H200ZM0 140.1V151.562H12.5V140.1H0ZM200 151.562V140.1H187.5V151.562H200ZM0 163.025V168.75C0 170.825 0.2 172.875 0.6 174.838L12.85 172.413C12.6143 171.206 12.4971 169.979 12.5 168.75V163.025H0ZM200 168.75V163.025H187.5V168.75C187.5 170 187.375 171.238 187.137 172.413L199.4 174.838C199.8 172.863 200 170.837 200 168.75ZM5.2625 186.125C7.55 189.525 10.475 192.45 13.8875 194.738L20.8375 184.35C18.7857 182.977 17.0232 181.214 15.65 179.163L5.275 186.112L5.2625 186.125ZM186.125 194.738C189.525 192.45 192.45 189.525 194.738 186.112L184.35 179.163C182.975 181.213 181.213 182.975 179.163 184.35L186.112 194.725L186.125 194.738ZM25.1625 199.4C27.1375 199.8 29.1625 200 31.25 200H36.975V187.5H31.25C30 187.5 28.7625 187.375 27.5875 187.137L25.1625 199.4V199.4ZM168.75 200C170.825 200 172.875 199.8 174.838 199.4L172.413 187.15C171.206 187.386 169.979 187.503 168.75 187.5H163.025V200H168.75ZM48.4375 200H59.9V187.5H48.4375V200ZM71.35 200H82.8125V187.5H71.35V200ZM94.275 187.5V200H105.725V187.5H94.275ZM117.188 200H128.65V187.5H117.188V200ZM140.1 200H151.562V187.5H140.1V200ZM106.25 56.25C106.25 54.5924 105.592 53.0027 104.419 51.8306C103.247 50.6585 101.658 50 100 50C98.3424 50 96.7527 50.6585 95.5806 51.8306C94.4085 53.0027 93.75 54.5924 93.75 56.25V93.75H56.25C54.5924 93.75 53.0027 94.4085 51.8306 95.5806C50.6585 96.7527 50 98.3424 50 100C50 101.658 50.6585 103.247 51.8306 104.419C53.0027 105.592 54.5924 106.25 56.25 106.25H93.75V143.75C93.75 145.408 94.4085 146.997 95.5806 148.169C96.7527 149.342 98.3424 150 100 150C101.658 150 103.247 149.342 104.419 148.169C105.592 146.997 106.25 145.408 106.25 143.75V106.25H143.75C145.408 106.25 146.997 105.592 148.169 104.419C149.342 103.247 150 101.658 150 100C150 98.3424 149.342 96.7527 148.169 95.5806C146.997 94.4085 145.408 93.75 143.75 93.75H106.25V56.25Z" fill="#C4C4C4"/>
</svg>
